<svg xmlns="http://www.w3.org/2000/svg" width="1280" height="1024" xml:space="preserve"><rect style="stroke:none;stroke-width:0;stroke-dasharray:none;stroke-linecap:butt;stroke-dashoffset:0;stroke-linejoin:miter;stroke-miterlimit:4;fill:#fff;fill-opacity:0;fill-rule:nonzero;opacity:1" paint-order="stroke" x="-640" y="-512" rx="0" ry="0" width="1280" height="1024" transform="translate(640 512)" id="background-logo"/><g paint-order="stroke" id="logo-logo"><path style="stroke:none;stroke-width:1px;stroke-dasharray:none;stroke-linecap:butt;stroke-dashoffset:0;stroke-linejoin:miter;stroke-miterlimit:4;fill:#083973;fill-rule:nonzero;opacity:1" transform="matrix(5.56897 0 0 -5.56897 844.27 389.169)" d="M0 0v.004C-3.802 5.712-8.75 6.998-12.457 6.54c-3.112-.38-5.349-1.984-5.314-3.224 7.576-4.757 9.736-18.398 13.236-19.04.817-.148 1.737.409 2.287 1.664 0 .003.003.003.003.007.004.007.007.01.007.017A36.862 36.862 0 0 1 0 0m-30.221-27.049-3.668 1.434-4.437 1.737-3.099-4.153a32.408 32.408 0 0 1-2.412-3.71c-1.881-3.41-2.158-5.339-1.206-5.641.004 0 .008-.003.011-.003.028-.007.056-.014.088-.018a36.9 36.9 0 0 1 10.921-.743c4.926 6.382 3.802 11.097 3.802 11.097m-13.585 62.154h-.007a36.853 36.853 0 0 1-16.756-7.862c-.084-.07-.165-.137-.246-.208-.081-.07-.163-.141-.24-.211a8.957 8.957 0 0 1-.684-.68c-3.7-4.039-2.769-8.69 4.736-5.913 8.574 3.171 15.269 3.7 15.269 3.7s4.395.817 10.456.056c3.126-.387 6.699-1.202 10.335-2.759 0 0-8.302 13.947-22.863 13.877m-10.145-51.463s-10.543-2.992-17.204.902h-.003a36.604 36.604 0 0 0-2.164 7.238 2.646 2.646 0 0 0-.042.212v.01c-.032.247-.028.515.018.8.997 6.252 16.372 12.098 16.372 12.098s-1.9-5.783-.346-12.979a25.597 25.597 0 0 1 3.369-8.281" stroke-linecap="round"/><g transform="matrix(5.56897 0 0 -5.56897 638.348 396.213)"><radialGradient id="SVGID_115_201912" gradientUnits="userSpaceOnUse" gradientTransform="matrix(28.35675 0 0 -29.38281 70.644 73.714)" cx="0" cy="0" r="1" fx="0" fy="0"><stop offset="0%" style="stop-color:#9cd7ff;stop-opacity:1"/><stop offset="60.903%" style="stop-color:#24446f;stop-opacity:1"/><stop offset="77.005%" style="stop-color:#24446f;stop-opacity:1"/><stop offset="87.483%" style="stop-color:#24446f;stop-opacity:1"/><stop offset="100%" style="stop-color:#112e57;stop-opacity:1"/></radialGradient><path style="stroke:none;stroke-width:1px;stroke-dasharray:none;stroke-linecap:butt;stroke-dashoffset:0;stroke-linejoin:miter;stroke-miterlimit:4;fill:url(#SVGID_115_201912);fill-rule:nonzero;opacity:1" transform="translate(-74.377 -71.501)" d="M48.418 71.501c0-14.338 11.623-25.959 25.96-25.959 14.337 0 25.959 11.621 25.959 25.959 0 14.337-11.622 25.959-25.959 25.959s-25.96-11.622-25.96-25.959" stroke-linecap="round"/></g><path style="stroke:none;stroke-width:1px;stroke-dasharray:none;stroke-linecap:butt;stroke-dashoffset:0;stroke-linejoin:miter;stroke-miterlimit:4;fill:#112e57;fill-rule:nonzero;opacity:1" transform="matrix(5.56897 0 0 -5.56897 705.245 338.246)" d="M0 0c-2.29-3.79 6.61-8.37 10.48-23.26.01-.02.01-.05.02-.07-4.3-7.5-12.25-12.64-21.42-13.02 2.11 4.05 3.21 7.87 1.82 8.86-2.49 1.77-5.83-1.19-13.18-6.77A26.021 26.021 0 0 0-36.3-19.6c5.09 1.6 10.78 4.3 15.69 7.88C-10.54-4.35-5.45 8.23-9.29 15.41 2.86 14.14 12.53 4.49 13.81-7.66 8.51-1.94 1.6 2.65 0 0" stroke-linecap="round"/><g transform="matrix(5.56897 0 0 -5.56897 640.175 396.213)"><radialGradient id="SVGID_116_201913" gradientUnits="userSpaceOnUse" gradientTransform="matrix(48.8894 0 0 -48.8894 67.834 79.606)" cx="0" cy="0" r="1" fx="0" fy="0"><stop offset="0%" style="stop-color:#e3f3f6;stop-opacity:1"/><stop offset="47.464%" style="stop-color:#5492d9;stop-opacity:1"/><stop offset="55.311%" style="stop-color:#5492d9;stop-opacity:1"/><stop offset="59.645%" style="stop-color:#5492d9;stop-opacity:1"/><stop offset="100%" style="stop-color:#436dc0;stop-opacity:1"/></radialGradient><path style="stroke:none;stroke-width:1px;stroke-dasharray:none;stroke-linecap:butt;stroke-dashoffset:0;stroke-linejoin:miter;stroke-miterlimit:4;fill:url(#SVGID_116_201913);fill-rule:nonzero;opacity:1" transform="translate(-74.706 -71.501)" d="M73.865 108.499a36.861 36.861 0 0 1-23.08-8.49c.642.522 1.339.973 2.072 1.361 3.359 1.779 12.334 5.666 21.256 2.11 11.277-4.493 6.52-22.204-6.255-31.539-12.006-8.774-28.684-12.182-29.826-7.393a36.73 36.73 0 0 1 5.262-13.126c2.596-4.009 6.959-6.62 11.736-6.632 2.841-.006 6.171.848 9.717 3.513 8.367 6.288 11.981 9.747 14.624 7.869 2.643-1.879-3.707-13.93-8.87-18.501-1.92-1.698-3.333-2.449-4.091-2.307a36.838 36.838 0 0 1 7.968-.864c4.007 0 7.866.637 11.478 1.815 9.778 3.19 15.622 13.359 13.277 23.372a30.87 30.87 0 0 1-.176.714C95.081 75.29 86.183 79.87 88.474 83.659c2.29 3.788 15.417-7.225 19.205-15.154 1.987-4.161 2.202-7.213 1.667-9.119a36.945 36.945 0 0 1 2.023 12.988c-.463 20.02-17.034 36.129-37.001 36.128-.167 0-.336-.001-.503-.003" stroke-linecap="round"/></g><g transform="matrix(5.56897 0 0 -5.56897 556.812 327.824)"><linearGradient id="SVGID_117_201914" gradientUnits="userSpaceOnUse" gradientTransform="matrix(44.53933 0 0 -44.53933 36.986 83.781)" x1="0" y1="0" x2="1" y2="0"><stop offset="0%" style="stop-color:#e3f3f6;stop-opacity:1"/><stop offset="24.86%" style="stop-color:#e3f3f6;stop-opacity:1"/><stop offset="79.144%" style="stop-color:#5492d9;stop-opacity:1"/><stop offset="81.167%" style="stop-color:#5492d9;stop-opacity:1"/><stop offset="100%" style="stop-color:#436dc0;stop-opacity:1"/></linearGradient><path style="stroke:none;stroke-width:1px;stroke-dasharray:none;stroke-linecap:butt;stroke-dashoffset:0;stroke-linejoin:miter;stroke-miterlimit:4;fill:url(#SVGID_117_201914);fill-rule:nonzero;opacity:1" transform="translate(-59.736 -83.782)" d="M52.857 101.37c5.696 2.538 12.274 3.916 18.408 2.228 2.26-.622 4.472-1.542 6.027-3.373 2.045-2.409 2.414-5.668 2.022-8.702-.817-6.329-4.691-12.208-9.283-16.481-4.759-4.426-10.75-7.655-16.803-9.932-2.874-1.081-5.877-1.979-8.935-2.335-1.366-.158-2.816-.243-4.16.106-.537.141-1.087.343-1.5.726-.058.054-.38.42-.535.684.886-2.859 6.203-2.298 8.373-2.037 3.651.437 7.241 1.481 10.656 2.824 6.28 2.471 12.352 6.023 16.878 11.095 4.285 4.804 7.796 11.394 7.426 18.002-.173 3.096-1.355 6.181-3.794 8.19-2.225 1.833-5.187 2.652-8 3.005-.884.111-1.768.164-2.651.164-4.964 0-9.87-1.676-14.129-4.164M38.098 64.291a2.541 2.541 0 0 0-.066.257c-.041-.037-.005-.136.066-.257" stroke-linecap="round"/></g><g transform="matrix(5.56897 0 0 -5.56897 594.135 513.66)"><linearGradient id="SVGID_118_201915" gradientUnits="userSpaceOnUse" gradientTransform="scale(-55.30436 55.30436) rotate(-87.951 .208 1.424)" x1="0" y1="0" x2="1" y2="0"><stop offset="0%" style="stop-color:#e3f3f6;stop-opacity:1"/><stop offset="47.464%" style="stop-color:#5492d9;stop-opacity:1"/><stop offset="55.311%" style="stop-color:#5492d9;stop-opacity:1"/><stop offset="59.645%" style="stop-color:#5492d9;stop-opacity:1"/><stop offset="100%" style="stop-color:#436dc0;stop-opacity:1"/></linearGradient><path style="stroke:none;stroke-width:1px;stroke-dasharray:none;stroke-linecap:butt;stroke-dashoffset:0;stroke-linejoin:miter;stroke-miterlimit:4;fill:url(#SVGID_118_201915);fill-rule:nonzero;opacity:1" transform="translate(-66.438 -50.411)" d="M72.908 64.021c-3.703-2.319-6.967-5.184-10.906-7.143-6.128-3.045-13.106-4.137-19.893-3.493.374-.665.769-1.321 1.185-1.962 2.596-4.01 6.959-6.622 11.734-6.632 2.844-.007 6.174.845 9.719 3.513 8.365 6.287 11.981 9.748 14.624 7.87 2.643-1.879-3.707-13.931-8.87-18.501-1.92-1.699-3.333-2.45-4.091-2.308a36.901 36.901 0 0 1 7.968-.864c2.269 0 4.493.205 6.649.599 3.436 3.317 6.287 7.256 8.077 11.552 2.22 5.328 2.816 13.225-2.019 17.369-1.887 1.616-4.182 2.301-6.525 2.301-2.668 0-5.397-.888-7.652-2.301" stroke-linecap="round"/></g><g transform="matrix(5.56897 0 0 -5.56897 632.634 539.58)"><radialGradient id="SVGID_119_201916" gradientUnits="userSpaceOnUse" gradientTransform="matrix(9.33444 0 0 -9.33444 71.15 43.585)" cx="0" cy="0" r="1" fx="0" fy="0"><stop offset="0%" style="stop-color:#e3f3f6;stop-opacity:1"/><stop offset="24.86%" style="stop-color:#e3f3f6;stop-opacity:1"/><stop offset="79.144%" style="stop-color:#5492d9;stop-opacity:1"/><stop offset="81.167%" style="stop-color:#5492d9;stop-opacity:1"/><stop offset="100%" style="stop-color:#436dc0;stop-opacity:1"/></radialGradient><path style="stroke:none;stroke-width:1px;stroke-dasharray:none;stroke-linecap:butt;stroke-dashoffset:0;stroke-linejoin:miter;stroke-miterlimit:4;fill:url(#SVGID_119_201916);fill-rule:nonzero;opacity:1" transform="translate(-73.351 -45.757)" d="M78.406 50.433c-1.015-2.199-2.248-4.308-3.555-6.345-1.326-2.069-2.769-4.108-4.47-5.888-.952-.998-2.471-2.815-3.971-2.836-.039-.088 1.269.119 1.372.155.445.158.871.381 1.278.62a15.396 15.396 0 0 1 2.483 1.819c1.831 1.633 3.364 3.602 4.681 5.666 1.379 2.161 2.565 4.474 3.348 6.92.439 1.372 1.477 4.665-.201 5.628 1.305-1.348-.342-4.389-.965-5.739" stroke-linecap="round"/></g><g transform="matrix(5.56897 0 0 -5.56897 675.683 326.913)"><linearGradient id="SVGID_120_201917" gradientUnits="userSpaceOnUse" gradientTransform="scale(45.66438 -45.66438) rotate(-28 -2.461 -3.668)" x1="0" y1="0" x2="1" y2="0"><stop offset="0%" style="stop-color:#e3f3f6;stop-opacity:1"/><stop offset="47.464%" style="stop-color:#5492d9;stop-opacity:1"/><stop offset="55.311%" style="stop-color:#5492d9;stop-opacity:1"/><stop offset="59.645%" style="stop-color:#5492d9;stop-opacity:1"/><stop offset="100%" style="stop-color:#436dc0;stop-opacity:1"/></linearGradient><path style="stroke:none;stroke-width:1px;stroke-dasharray:none;stroke-linecap:butt;stroke-dashoffset:0;stroke-linejoin:miter;stroke-miterlimit:4;fill:url(#SVGID_120_201917);fill-rule:nonzero;opacity:1" transform="translate(-81.082 -83.945)" d="M73.863 108.499a36.862 36.862 0 0 1-23.078-8.488c.642.521 1.339.972 2.072 1.36 3.359 1.779 12.334 5.666 21.256 2.11a10.632 10.632 0 0 0 2.502-1.395c7.915-2.086 24.544-9.169 30.45-32.412.226-.396.43-.787.614-1.167 1.987-4.162 2.202-7.213 1.667-9.12a36.856 36.856 0 0 1 2.022 12.989c-.462 20.018-17.036 36.127-37.006 36.127-.166 0-.333-.001-.499-.004" stroke-linecap="round"/></g><g transform="matrix(5.56897 0 0 -5.56897 776.298 393.228)"><radialGradient id="SVGID_121_201918" gradientUnits="userSpaceOnUse" gradientTransform="matrix(12.15517 0 0 -12.15517 99.098 72.21)" cx="0" cy="0" r="1" fx="0" fy="0"><stop offset="0%" style="stop-color:#e3f3f6;stop-opacity:1"/><stop offset="24.86%" style="stop-color:#e3f3f6;stop-opacity:1"/><stop offset="79.144%" style="stop-color:#5492d9;stop-opacity:1"/><stop offset="81.167%" style="stop-color:#5492d9;stop-opacity:1"/><stop offset="100%" style="stop-color:#436dc0;stop-opacity:1"/></radialGradient><path style="stroke:none;stroke-width:1px;stroke-dasharray:none;stroke-linecap:butt;stroke-dashoffset:0;stroke-linejoin:miter;stroke-miterlimit:4;fill:url(#SVGID_121_201918);fill-rule:nonzero;opacity:1" transform="translate(-99.149 -72.037)" d="M88.474 83.659c1.618 2.125 5.829-1.376 7.179-2.429 2.476-1.931 4.736-4.147 6.823-6.489 2.111-2.37 4.035-4.929 5.348-7.834 1.035-2.292 1.968-4.97 1.522-7.521 1.001 2.636.263 5.718-.702 8.247-1.188 3.113-3.144 5.86-5.367 8.322-2.201 2.436-4.69 4.664-7.457 6.441-1.017.654-3.66 2.292-5.552 2.292-.783 0-1.438-.281-1.794-1.029" stroke-linecap="round"/></g></g><g paint-order="stroke" transform="matrix(1.92115 0 0 1.92115 641.4 721.221)" id="text-logo"><path style="stroke:none;stroke-width:0;stroke-dasharray:none;stroke-linecap:butt;stroke-dashoffset:0;stroke-linejoin:miter;stroke-miterlimit:4;fill:#3f79c3;fill-rule:nonzero;opacity:1" transform="translate(-310.375 11.695)" d="M18.98 0H3.15v-23.39h2.26v21.28h13.57V0Zm5.66-11.65q0 3.45 1.55 6.2 1.54 2.74 4.25 4.26Q33.14.33 36.5.33q2.47 0 4.65-.89 2.19-.88 3.76-2.45 1.58-1.57 2.49-3.81.9-2.24.9-4.83 0-3.49-1.55-6.26-1.55-2.78-4.24-4.3-2.69-1.53-6.01-1.53-3.36 0-6.06 1.53-2.71 1.52-4.25 4.3-1.55 2.77-1.55 6.26Zm2.35 0q0-2.86 1.23-5.11 1.24-2.25 3.41-3.49 2.16-1.23 4.87-1.23 4.07 0 6.76 2.75 2.7 2.76 2.7 7.08 0 4.26-2.7 7-2.69 2.74-6.76 2.74-2.69 0-4.86-1.23-2.16-1.23-3.41-3.46-1.24-2.23-1.24-5.05ZM60.66 0 54.1-23.39h2.63l5.39 20.83 7.14-20.83h2.66l7.1 20.8 5.41-20.8h2.63L80.48 0h-2.82l-7.07-20.7L63.52 0h-2.86ZM96.4 0h-2.26v-23.39h9.39q3.89 0 6.06 1.71 2.16 1.71 2.16 5.16 0 3.14-2.1 4.82-2.1 1.67-5.72 1.67h-.74L112.03 0h-2.82l-8.6-10.03H96.4V0Zm0-21.28v9.41h7.07q2.82 0 4.4-1.17 1.57-1.17 1.57-3.48 0-4.76-5.97-4.76H96.4ZM136.16 0h-16.15v-23.39h16.15v2.11h-13.89v8.36h12.2v2.11h-12.2v8.7h13.89V0Zm14.04-9.48-9.08-13.91h2.56l7.68 11.8 7.61-11.8h2.55l-9.08 13.91V0h-2.24v-9.48Zm26.79-2.17q0-2.63.92-4.89.93-2.25 2.55-3.83 1.63-1.58 3.91-2.47 2.29-.9 4.93-.9 4.53 0 8.16 2.29v2.41q-3.75-2.59-8.1-2.59-4.43 0-7.23 2.78-2.8 2.78-2.8 7.2 0 4.38 2.8 7.13 2.8 2.76 7.23 2.76 3.14 0 5.85-1.29v-7.56h-8.36v-1.94h10.61v10.64q-3.63 2.29-8.1 2.29-3.57 0-6.39-1.53-2.82-1.52-4.4-4.27-1.58-2.75-1.58-6.23ZM221.86 0h-15.82v-23.39h2.26v21.28h13.56V0Zm5.67-11.65q0 3.45 1.54 6.2 1.55 2.74 4.25 4.26 2.71 1.52 6.06 1.52 2.47 0 4.66-.89 2.18-.88 3.76-2.45 1.57-1.57 2.48-3.81.9-2.24.9-4.83 0-3.49-1.55-6.26-1.55-2.78-4.24-4.3-2.69-1.53-6.01-1.53-3.35 0-6.06 1.53-2.7 1.52-4.25 4.3-1.54 2.77-1.54 6.26Zm2.34 0q0-2.86 1.23-5.11 1.24-2.25 3.41-3.49 2.16-1.23 4.87-1.23 4.07 0 6.77 2.75 2.69 2.76 2.69 7.08 0 4.26-2.69 7-2.7 2.74-6.77 2.74-2.69 0-4.86-1.23-2.16-1.23-3.41-3.46-1.24-2.23-1.24-5.05ZM269.22 0h-9.83v-23.39h9.18q1.6 0 2.88.31 1.29.32 2.29.98.99.67 1.54 1.8t.55 2.65q0 2.09-1.28 3.46t-3.29 1.77q2.94.38 4.5 1.96t1.56 4.13q0 3.16-2.17 4.74Q272.97 0 269.22 0Zm-7.57-11.29v9.18h7.41q2.67 0 4.25-1.09 1.59-1.1 1.59-3.49 0-2.32-1.66-3.46-1.66-1.14-4.45-1.14h-7.14Zm0-9.99v8.05h6.53q2.37 0 3.81-1.04 1.45-1.04 1.45-3.03 0-3.98-5.03-3.98h-6.76ZM284.8 0h-2.46l10.08-23.39h2.82L305.3 0h-2.49l-3.25-7.72h-11.5L284.8 0Zm9.02-21.25-4.9 11.52h9.78l-4.88-11.52ZM327.67 0h-15.82v-23.39h2.26v21.28h13.56V0Zm17.55-5.42q-1.58-2.76-1.58-6.23 0-3.47 1.58-6.25 1.58-2.77 4.32-4.3 2.74-1.54 6.11-1.54 4.41 0 8.05 2.29v2.41q-3.7-2.59-7.99-2.59-4.18 0-6.95 2.8-2.78 2.81-2.78 7.18 0 2.87 1.27 5.13 1.27 2.27 3.49 3.52 2.22 1.24 4.97 1.24 4.29 0 7.99-2.59v2.44Q360.06.38 355.65.38q-3.37 0-6.11-1.52t-4.32-4.28Zm24.53-6.23q0 3.45 1.54 6.2 1.55 2.74 4.25 4.26Q378.25.33 381.6.33q2.48 0 4.66-.89 2.18-.88 3.76-2.45 1.58-1.57 2.48-3.81.91-2.24.91-4.83 0-3.49-1.56-6.26-1.55-2.78-4.24-4.3-2.69-1.53-6.01-1.53-3.35 0-6.06 1.53-2.7 1.52-4.25 4.3-1.54 2.77-1.54 6.26Zm2.34 0q0-2.86 1.24-5.11 1.23-2.25 3.4-3.49 2.17-1.23 4.87-1.23 4.07 0 6.77 2.75 2.7 2.76 2.7 7.08 0 4.26-2.7 7t-6.77 2.74q-2.69 0-4.85-1.23-2.17-1.23-3.41-3.46-1.25-2.23-1.25-5.05ZM403.66 0h-2.28v-23.39h2.21l14.25 19.52v-19.52h2.29V0h-2.15l-14.32-19.44V0Zm24.29-17.51q0-1.98 1.07-3.42 1.07-1.45 2.83-2.15 1.75-.69 3.92-.69 2.46 0 4.48.66 2.03.66 3.28 1.56v2.51q-1.42-1.05-3.49-1.79-2.08-.75-4.3-.75-2.59 0-3.99 1.08-1.41 1.08-1.41 2.82 0 .78.28 1.41.27.63.67 1.06.4.43 1.14.82.74.39 1.38.64.63.25 1.66.58l2.53.84q1.38.44 2.28.81.9.36 1.82.92.91.56 1.43 1.2.51.63.83 1.56.33.93.33 2.13 0 2.9-2.14 4.47-2.13 1.57-5.58 1.57-2.53 0-4.84-.71-2.32-.72-3.96-1.79v-2.38q1.74 1.18 4.1 1.99 2.36.8 4.7.8 2.7 0 4.06-1.04 1.35-1.03 1.35-2.81 0-.95-.31-1.64-.3-.7-1.01-1.23t-1.54-.92q-.84-.38-2.2-.83l-3.17-1.03q-1.08-.34-1.85-.65-.76-.31-1.65-.83-.89-.52-1.43-1.15-.54-.62-.9-1.55-.37-.93-.37-2.07Zm24.32 7.81v-13.69h2.34v13.73q0 3.63 1.77 5.71 1.78 2.07 5.33 2.07 3.59 0 5.36-2.07 1.78-2.08 1.78-5.71v-13.73h2.36V-9.7q0 2.26-.57 4.07-.56 1.81-1.7 3.16-1.14 1.34-2.97 2.07-1.83.73-4.26.73-2.41 0-4.23-.73-1.83-.73-2.96-2.07-1.13-1.35-1.69-3.16t-.56-4.07ZM496.18 0h-15.82v-23.39h2.26v21.28h13.56V0Zm12.3-21.28h-8.2v-2.11h18.64v2.11h-8.2V0h-2.24v-21.28ZM525.07 0h-2.46l10.08-23.39h2.82L545.57 0h-2.49l-3.25-7.72h-11.51L525.07 0Zm9.01-21.25-4.89 11.52h9.78l-4.89-11.52ZM554.16 0h-2.27v-23.39h2.21l14.24 19.52v-19.52h2.29V0h-2.14l-14.33-19.44V0Zm31.14-21.28h-8.2v-2.11h18.64v2.11h-8.2V0h-2.24v-21.28Zm15.56 3.77q0-1.98 1.07-3.42 1.07-1.45 2.83-2.15 1.75-.69 3.92-.69 2.46 0 4.48.66 2.03.66 3.27 1.56v2.51q-1.41-1.05-3.48-1.79-2.08-.75-4.3-.75-2.59 0-3.99 1.08-1.41 1.08-1.41 2.82 0 .78.28 1.41.27.63.67 1.06.4.43 1.14.82.74.39 1.37.64.64.25 1.67.58l2.53.84q1.37.44 2.28.81.9.36 1.82.92.91.56 1.42 1.2.52.63.84 1.56.33.93.33 2.13 0 2.9-2.14 4.47-2.13 1.57-5.58 1.57-2.53 0-4.84-.71-2.32-.72-3.96-1.79v-2.38q1.74 1.18 4.1 1.99 2.36.8 4.7.8 2.7 0 4.06-1.04 1.35-1.03 1.35-2.81 0-.95-.31-1.64-.3-.7-1.01-1.23t-1.54-.92q-.84-.38-2.2-.83l-3.18-1.03q-1.07-.34-1.84-.65-.76-.31-1.65-.83-.89-.52-1.43-1.15-.54-.62-.9-1.55-.37-.93-.37-2.07Z" stroke-linecap="round" id="text-logo-path-0"/></g><g paint-order="stroke" transform="matrix(1.92115 0 0 1.92115 641.75 802.412)" id="tagline-7d4cbc79-947f-4c25-ad30-e36aa35d0f9d-logo"><path style="stroke:none;stroke-width:0;stroke-dasharray:none;stroke-linecap:butt;stroke-dashoffset:0;stroke-linejoin:miter;stroke-miterlimit:4;fill:#083973;fill-rule:nonzero;opacity:1" transform="translate(-196.6 9.655)" d="M9.24 0H2.67v-19.32H8.9q1.57 0 2.53.11 2.32.32 3.57 1.53 1.24 1.22 1.24 3.23 0 3.05-3.17 4.11 3.87.95 3.87 4.63 0 1.27-.44 2.29-.44 1.03-1.18 1.68-.75.66-1.63 1.06-.88.39-1.88.54-.95.14-2.57.14Zm-3.5-8.79v6.33h3.8q.96 0 1.33-.03 1.24-.11 2.03-.92.79-.81.79-2.17 0-2.8-2.85-3.13-.56-.08-1.46-.08H5.74Zm0-8.09v5.71h3.37q.77 0 1.44-.11 2.44-.38 2.44-2.83 0-1.23-.71-1.9-.7-.67-1.92-.79-.67-.08-1.46-.08H5.74ZM32.56 0h-3.08v-19.32h6.66q1.73 0 2.66.11 2.26.3 3.58 1.55 1.32 1.25 1.32 3.61 0 1.8-.98 2.96t-2.6 1.66q2.32 1.01 2.65 4.44.16 1.87.47 3.04.31 1.17.88 1.95h-3.39q-.68-1.71-.98-4.59-.19-1.62-.85-2.49-.66-.88-1.93-.96-.48-.03-1.42-.03h-2.99V0Zm0-16.88v6.43h3.21q1.26 0 1.73-.05 1.34-.14 2.14-.92t.8-2.24q0-1.47-.68-2.21-.68-.73-2-.91-.67-.1-1.79-.1h-3.41ZM59.21 0h-3.08v-19.32h3.08V0Zm19.67 0h-6.12v-19.32h6.23q1.48 0 2.46.11 1.71.21 3.11.87t2.46 1.79q1.06 1.13 1.64 2.82.59 1.7.59 3.85 0 2.11-.61 3.87-.6 1.76-1.66 2.97-1.07 1.22-2.51 1.97-1.43.76-3.13.96-.98.11-2.46.11Zm-3.05-16.88v14.42h2.78q1.58 0 2.2-.11 2.36-.34 3.75-2.25 1.38-1.91 1.38-5.06 0-3-1.33-4.76-1.33-1.77-3.68-2.11-.76-.13-2.21-.13h-2.89Zm24.63 7.31q0-2.24.69-4.14.69-1.9 1.91-3.22 1.23-1.31 2.96-2.05 1.73-.73 3.74-.73 3.66 0 5.72 1.81 2.06 1.81 2.37 4.8l.03.28h-3.08l-.05-.28q-.4-2.02-1.66-3.14-1.26-1.12-3.39-1.12-2.68 0-4.29 2.1-1.61 2.11-1.61 5.54 0 3.57 1.58 5.67 1.59 2.09 4.18 2.09 2.15 0 3.57-1.41 1.41-1.42 1.53-3.74h-4.32v-2.46h7.32V0h-2.59l-.11-3.28-.86 1.89Q112.44.4 109.22.4q-2.7 0-4.7-1.27-2-1.26-3.03-3.51-1.03-2.25-1.03-5.19ZM144.18 0h-13.34v-19.32h13.07v2.44h-9.99v5.98h9.21v2.45h-9.21v5.99h10.26V0Zm31.85-16.88h-6.75v-2.44h16.56v2.44h-6.76V0h-3.05v-16.88ZM200.36 0h-3.08v-19.32h3.08v8.6h9.91v-8.6h3.05V0h-3.05v-8.23h-9.91V0Zm39.85 0h-13.34v-19.32h13.07v2.44h-9.99v5.98h9.21v2.45h-9.21v5.99h10.26V0Zm25.66-9.57q0-2.24.69-4.14.69-1.9 1.91-3.22 1.23-1.31 2.96-2.05 1.73-.73 3.74-.73 3.66 0 5.72 1.81 2.05 1.81 2.37 4.8l.03.28h-3.08l-.05-.28q-.4-2.02-1.66-3.14-1.26-1.12-3.39-1.12-2.68 0-4.29 2.1-1.62 2.11-1.62 5.54 0 3.57 1.59 5.67 1.59 2.09 4.18 2.09 2.15 0 3.57-1.41 1.41-1.42 1.53-3.74h-4.32v-2.46h7.32V0h-2.59l-.11-3.28-.86 1.89Q277.84.4 274.63.4q-2.7 0-4.7-1.27-2-1.26-3.03-3.51-1.03-2.25-1.03-5.19ZM309.59 0h-13.34v-19.32h3.08v16.78h10.26V0Zm9.6-9.67q0-2.24.63-4.09.63-1.85 1.81-3.17 1.17-1.32 2.94-2.05 1.76-.73 3.95-.73 2.9 0 5.02 1.26 2.12 1.26 3.2 3.53 1.08 2.26 1.08 5.25 0 3-1.08 5.25-1.08 2.26-3.2 3.54Q331.42.4 328.52.4q-2.91 0-5.04-1.28t-3.21-3.54q-1.08-2.25-1.08-5.25Zm3.31 0q0 3.6 1.6 5.66 1.6 2.05 4.42 2.05 2.8 0 4.4-2.05 1.6-2.06 1.6-5.66 0-3.61-1.59-5.65-1.59-2.04-4.41-2.04-2.83 0-4.42 2.04-1.6 2.04-1.6 5.65ZM356.95 0h-6.58v-19.32h6.23q1.58 0 2.53.11 2.33.32 3.57 1.53 1.25 1.22 1.25 3.23 0 3.05-3.18 4.11 3.87.95 3.87 4.63 0 1.27-.43 2.29-.44 1.03-1.19 1.68-.74.66-1.62 1.06-.89.39-1.88.54-.96.14-2.57.14Zm-3.5-8.79v6.33h3.8q.95 0 1.32-.03 1.25-.11 2.03-.92.79-.81.79-2.17 0-2.8-2.84-3.13-.57-.08-1.47-.08h-3.63Zm0-8.09v5.71h3.36q.78 0 1.45-.11 2.43-.38 2.43-2.83 0-1.23-.7-1.9-.71-.67-1.92-.79-.67-.08-1.47-.08h-3.15ZM390.53 0h-13.35v-19.32h13.07v2.44h-9.99v5.98h9.21v2.45h-9.21v5.99h10.27V0Z" stroke-linecap="round" id="tagline-7d4cbc79-947f-4c25-ad30-e36aa35d0f9d-logo-path-0"/></g></svg>