<?xml version="1.0" encoding="UTF-8" standalone="no" ?>
<!DOCTYPE svg PUBLIC "-//W3C//DTD SVG 1.1//EN" "http://www.w3.org/Graphics/SVG/1.1/DTD/svg11.dtd">
<svg xmlns="http://www.w3.org/2000/svg" xmlns:xlink="http://www.w3.org/1999/xlink" version="1.1" width="1280" height="1024" viewBox="0 0 1280 1024" xml:space="preserve">
<desc>Created with Fabric.js 4.4.0</desc>
<defs>
</defs>
<g transform="matrix(1 0 0 1 640 512)" id="background-logo">
<rect style="stroke: none; stroke-width: 0; stroke-dasharray: none; stroke-linecap: butt; stroke-dashoffset: 0; stroke-linejoin: miter; stroke-miterlimit: 4; fill: #fff; fill-opacity: 0; fill-rule: nonzero; opacity: 1" paint-order="stroke" x="-640" y="-512" rx="0" ry="0" width="1280" height="1024"></rect>
</g>
<g transform="matrix(1.9211538461538462 0 0 1.9211538461538462 640 396.21063793048904)" id="logo-logo">
<g style="" paint-order="stroke">
		<g transform="matrix(2.8987615294867255 0 0 -2.898761529486726 -0.00006788042708194553 0.9156280089401889)">
<path style="stroke: none; stroke-width: 1px; stroke-dasharray: none; stroke-linecap: butt; stroke-dashoffset: 0; stroke-linejoin: miter; stroke-miterlimit: 4; fill: #083973; fill-rule: nonzero; opacity: 1" paint-order="stroke" transform=" translate(36.6799169258175, 1.5803686906895464)" d="M 0 0 L 0 0.004 C -3.802 5.712 -8.75 6.997999999999999 -12.457 6.539999999999999 C -15.569 6.159999999999999 -17.806 4.555999999999999 -17.771 3.315999999999999 C -10.195 -1.4410000000000007 -8.035 -15.082 -4.535 -15.724 C -3.718 -15.872 -2.798 -15.315 -2.248 -14.06 C -2.248 -14.057 -2.245 -14.057 -2.245 -14.053 C -2.241 -14.046000000000001 -2.238 -14.043000000000001 -2.238 -14.036000000000001 C -2.231 -14.022000000000002 -2.224 -14.004000000000001 -2.22 -13.986 C -2.1500000000000004 -13.8 -2.083 -13.606 -2.019 -13.415000000000001 C -2.016 -13.405000000000001 -2.012 -13.391000000000002 -2.0090000000000003 -13.38 C -0.6910000000000003 -9.585 0.024999999999999467 -5.508000000000001 0.024999999999999467 -1.2650000000000006 C 0.025 -0.842 0.018 -0.419 0 0 M -30.221 -27.049 L -33.889 -25.615 L -38.326 -23.878 L -41.425 -28.031 C -42.308 -29.214 -43.123 -30.448 -43.836999999999996 -31.741 C -45.717999999999996 -35.150999999999996 -45.995 -37.08 -45.043 -37.382 C -45.039 -37.382 -45.035 -37.385 -45.032 -37.385 C -45.004 -37.391999999999996 -44.976 -37.399 -44.943999999999996 -37.403 C -42.37799999999999 -37.97 -39.711 -38.266 -36.976 -38.266 C -35.983 -38.266 -34.996 -38.227 -34.022999999999996 -38.146 C -29.096999999999994 -31.764000000000003 -30.220999999999997 -27.049 -30.220999999999997 -27.049 M -43.806 35.105000000000004 L -43.812999999999995 35.105000000000004 C -50.102999999999994 33.932 -55.833 31.165000000000003 -60.568999999999996 27.243000000000002 C -60.653 27.173000000000002 -60.733999999999995 27.106 -60.815 27.035000000000004 C -60.896 26.965000000000003 -60.977999999999994 26.894000000000005 -61.055 26.824000000000005 C -61.295 26.609000000000005 -61.524 26.383000000000006 -61.739 26.144000000000005 C -65.439 22.105000000000004 -64.508 17.454000000000008 -57.003 20.231000000000005 C -48.429 23.402000000000005 -41.734 23.931000000000004 -41.734 23.931000000000004 C -41.734 23.931000000000004 -37.339 24.748000000000005 -31.278000000000002 23.987000000000005 C -28.152 23.600000000000005 -24.579 22.785000000000004 -20.943 21.228000000000005 C -20.943 21.228000000000005 -29.245 35.175000000000004 -43.806 35.105000000000004 M -53.95099999999999 -16.357999999999997 C -53.95099999999999 -16.357999999999997 -64.494 -19.349999999999998 -71.155 -15.455999999999998 L -71.158 -15.455999999999998 C -72.116 -13.150999999999998 -72.846 -10.729999999999997 -73.322 -8.217999999999996 C -73.339 -8.146999999999997 -73.35300000000001 -8.076999999999996 -73.364 -8.005999999999997 L -73.364 -7.995999999999997 C -73.396 -7.748999999999997 -73.39200000000001 -7.480999999999997 -73.346 -7.195999999999997 C -72.349 -0.9439999999999973 -56.974000000000004 4.902000000000004 -56.974000000000004 4.902000000000004 C -56.974000000000004 4.902000000000004 -58.874 -0.8809999999999967 -57.32 -8.076999999999995 C -56.752 -10.719999999999995 -55.716 -13.548999999999996 -53.951 -16.357999999999997" stroke-linecap="round"></path>
</g>
		<g transform="matrix(2.8987615294867255 0 0 -2.898761529486726 -0.8597914861642266 0.00144938076471135)">
<radialGradient id="SVGID_115_201912" gradientUnits="userSpaceOnUse" gradientTransform="matrix(28.356747 0 0 -29.382812 70.643707 73.71431)" cx="0" cy="0" r="1" fx="0" fy="0">
<stop offset="0%" style="stop-color: #9cd7ff; stop-opacity: 1"></stop>
<stop offset="60.903123%" style="stop-color: #24446f; stop-opacity: 1"></stop>
<stop offset="77.0053%" style="stop-color: #24446f; stop-opacity: 1"></stop>
<stop offset="87.483493%" style="stop-color: #24446f; stop-opacity: 1"></stop>
<stop offset="100%" style="stop-color: #112e57; stop-opacity: 1"></stop>
</radialGradient>
<path style="stroke: none; stroke-width: 1px; stroke-dasharray: none; stroke-linecap: butt; stroke-dashoffset: 0; stroke-linejoin: miter; stroke-miterlimit: 4; fill: url(&quot;#SVGID_115_201912&quot;); fill-rule: nonzero; opacity: 1" paint-order="stroke" transform=" translate(-74.3775, -71.501)" d="M 48.418 71.501 C 48.418 57.163000000000004 60.041 45.542 74.378 45.542 L 74.378 45.542 C 88.715 45.542 100.337 57.163000000000004 100.337 71.501 L 100.337 71.501 C 100.337 85.83800000000001 88.715 97.46000000000001 74.378 97.46000000000001 L 74.378 97.46000000000001 C 60.041 97.46000000000001 48.418 85.83800000000001 48.418 71.501" stroke-linecap="round"></path>
</g>
		<g transform="matrix(2.8987615294867255 0 0 -2.898761529486726 1.3650079877169219 0.17827383406347508)">
<path style="stroke: none; stroke-width: 1px; stroke-dasharray: none; stroke-linecap: butt; stroke-dashoffset: 0; stroke-linejoin: miter; stroke-miterlimit: 4; fill: #112e57; fill-rule: nonzero; opacity: 1" paint-order="stroke" transform=" translate(11.244999999999997, 10.470000000000006)" d="M 0 0 C -2.29 -3.79 6.61 -8.37 10.48 -23.26 C 10.49 -23.28 10.49 -23.310000000000002 10.5 -23.330000000000002 C 6.2 -30.830000000000002 -1.75 -35.97 -10.920000000000002 -36.35 C -8.810000000000002 -32.300000000000004 -7.710000000000002 -28.48 -9.100000000000001 -27.490000000000002 C -11.590000000000002 -25.720000000000002 -14.930000000000001 -28.680000000000003 -22.28 -34.260000000000005 C -28.720000000000002 -31.490000000000006 -33.81 -26.180000000000007 -36.3 -19.600000000000005 C -31.209999999999997 -18.000000000000004 -25.519999999999996 -15.300000000000004 -20.61 -11.720000000000006 C -10.54 -4.350000000000006 -5.449999999999999 8.229999999999993 -9.29 15.409999999999993 C 2.86 14.14 12.53 4.49 13.81 -7.66 C 8.51 -1.94 1.6 2.65 0 0" stroke-linecap="round"></path>
</g>
		<g transform="matrix(2.8987615294867255 0 0 -2.898761529486726 0.09107017593453293 0.0014493132883899307)">
<radialGradient id="SVGID_116_201913" gradientUnits="userSpaceOnUse" gradientTransform="matrix(48.889404 0 0 -48.889404 67.833755 79.605827)" cx="0" cy="0" r="1" fx="0" fy="0">
<stop offset="0%" style="stop-color: #e3f3f6; stop-opacity: 1"></stop>
<stop offset="47.463809%" style="stop-color: #5492d9; stop-opacity: 1"></stop>
<stop offset="55.311%" style="stop-color: #5492d9; stop-opacity: 1"></stop>
<stop offset="59.645479%" style="stop-color: #5492d9; stop-opacity: 1"></stop>
<stop offset="100%" style="stop-color: #436dc0; stop-opacity: 1"></stop>
</radialGradient>
<path style="stroke: none; stroke-width: 1px; stroke-dasharray: none; stroke-linecap: butt; stroke-dashoffset: 0; stroke-linejoin: miter; stroke-miterlimit: 4; fill: url(&quot;#SVGID_116_201913&quot;); fill-rule: nonzero; opacity: 1" paint-order="stroke" transform=" translate(-74.70552341704428, -71.50100002327765)" d="M 73.865 108.499 C 65.09599999999999 108.37899999999999 57.068999999999996 105.21199999999999 50.785 100.009 L 50.785 100.009 C 51.427 100.531 52.123999999999995 100.982 52.857 101.37 L 52.857 101.37 C 56.216 103.149 65.191 107.036 74.113 103.48 L 74.113 103.48 C 85.39 98.987 80.633 81.276 67.858 71.941 L 67.858 71.941 C 55.852 63.167 39.174 59.759 38.032 64.548 L 38.032 64.548 C 38.936 59.785000000000004 40.751999999999995 55.348 43.294 51.422000000000004 L 43.294 51.422000000000004 C 45.89 47.413000000000004 50.253 44.80200000000001 55.03 44.790000000000006 L 55.03 44.790000000000006 C 57.871 44.784000000000006 61.201 45.638000000000005 64.747 48.303000000000004 L 64.747 48.303000000000004 C 73.114 54.59100000000001 76.728 58.050000000000004 79.371 56.172000000000004 L 79.371 56.172000000000004 C 82.014 54.293000000000006 75.664 42.242000000000004 70.50099999999999 37.67100000000001 L 70.50099999999999 37.67100000000001 C 68.58099999999999 35.973000000000006 67.16799999999999 35.22200000000001 66.41 35.364000000000004 L 66.41 35.364000000000004 C 68.975 34.796 71.644 34.5 74.378 34.5 L 74.378 34.5 C 78.385 34.5 82.244 35.137 85.856 36.315 L 85.856 36.315 C 95.634 39.504999999999995 101.478 49.674 99.133 59.687 L 99.133 59.687 C 99.07799999999999 59.922999999999995 99.01899999999999 60.160999999999994 98.957 60.400999999999996 L 98.957 60.400999999999996 C 95.081 75.29 86.183 79.87 88.474 83.659 L 88.474 83.659 C 90.76400000000001 87.447 103.891 76.43400000000001 107.679 68.50500000000001 L 107.679 68.50500000000001 C 109.666 64.34400000000001 109.881 61.29200000000001 109.346 59.38600000000001 L 109.346 59.38600000000001 C 110.753 63.44100000000001 111.474 67.81800000000001 111.369 72.37400000000001 L 111.369 72.37400000000001 C 110.906 92.394 94.33500000000001 108.50300000000001 74.368 108.50200000000001 L 74.368 108.50200000000001 C 74.201 108.50200000000001 74.032 108.501 73.865 108.49900000000001" stroke-linecap="round"></path>
</g>
		<g transform="matrix(2.8987615294867255 0 0 -2.898761529486726 -43.30123310079347 -35.59682260491468)">
<linearGradient id="SVGID_117_201914" gradientUnits="userSpaceOnUse" gradientTransform="matrix(44.539329 0 0 -44.539329 36.985943 83.781357)" x1="0" y1="0" x2="1" y2="0">
<stop offset="0%" style="stop-color: #e3f3f6; stop-opacity: 1"></stop>
<stop offset="24.860056999999998%" style="stop-color: #e3f3f6; stop-opacity: 1"></stop>
<stop offset="79.1444%" style="stop-color: #5492d9; stop-opacity: 1"></stop>
<stop offset="81.16722800000001%" style="stop-color: #5492d9; stop-opacity: 1"></stop>
<stop offset="100%" style="stop-color: #436dc0; stop-opacity: 1"></stop>
</linearGradient>
<path style="stroke: none; stroke-width: 1px; stroke-dasharray: none; stroke-linecap: butt; stroke-dashoffset: 0; stroke-linejoin: miter; stroke-miterlimit: 4; fill: url(&quot;#SVGID_117_201914&quot;); fill-rule: nonzero; opacity: 1" paint-order="stroke" transform=" translate(-59.7362674657238, -83.78151070209377)" d="M 52.857 101.37 C 58.553 103.908 65.131 105.286 71.265 103.598 L 71.265 103.598 C 73.525 102.976 75.737 102.056 77.292 100.225 L 77.292 100.225 C 79.337 97.81599999999999 79.706 94.55699999999999 79.31400000000001 91.523 L 79.31400000000001 91.523 C 78.497 85.194 74.623 79.315 70.031 75.042 L 70.031 75.042 C 65.272 70.616 59.281 67.387 53.228 65.11 L 53.228 65.11 C 50.354 64.029 47.351 63.131 44.293 62.775 L 44.293 62.775 C 42.927 62.617 41.477 62.532 40.132999999999996 62.881 L 40.132999999999996 62.881 C 39.596 63.022 39.04599999999999 63.224000000000004 38.632999999999996 63.607 L 38.632999999999996 63.607 C 38.574999999999996 63.661 38.25299999999999 64.027 38.098 64.291 L 38.098 64.291 C 38.984 61.431999999999995 44.301 61.992999999999995 46.471 62.254 L 46.471 62.254 C 50.122 62.690999999999995 53.711999999999996 63.735 57.126999999999995 65.078 L 57.126999999999995 65.078 C 63.407 67.549 69.479 71.101 74.005 76.173 L 74.005 76.173 C 78.28999999999999 80.977 81.801 87.56700000000001 81.431 94.175 L 81.431 94.175 C 81.258 97.271 80.076 100.356 77.637 102.365 L 77.637 102.365 C 75.412 104.198 72.45 105.017 69.637 105.36999999999999 L 69.637 105.36999999999999 C 68.753 105.481 67.869 105.53399999999999 66.986 105.53399999999999 L 66.986 105.53399999999999 C 62.022000000000006 105.53399999999999 57.11600000000001 103.85799999999999 52.857000000000006 101.36999999999999 M 38.098 64.291 C 38.071999999999996 64.374 38.05 64.459 38.032 64.548 L 38.032 64.548 C 37.991 64.511 38.026999999999994 64.412 38.098 64.291" stroke-linecap="round"></path>
</g>
		<g transform="matrix(2.8987615294867255 0 0 -2.898761529486726 -23.8737225567192 61.13488065687497)">
<linearGradient id="SVGID_118_201915" gradientUnits="userSpaceOnUse" gradientTransform="matrix(-1.9776099 -55.268993 -55.268993 1.9776099 67.637726 87.4412)" x1="0" y1="0" x2="1" y2="0">
<stop offset="0%" style="stop-color: #e3f3f6; stop-opacity: 1"></stop>
<stop offset="47.463809%" style="stop-color: #5492d9; stop-opacity: 1"></stop>
<stop offset="55.311%" style="stop-color: #5492d9; stop-opacity: 1"></stop>
<stop offset="59.645479%" style="stop-color: #5492d9; stop-opacity: 1"></stop>
<stop offset="100%" style="stop-color: #436dc0; stop-opacity: 1"></stop>
</linearGradient>
<path style="stroke: none; stroke-width: 1px; stroke-dasharray: none; stroke-linecap: butt; stroke-dashoffset: 0; stroke-linejoin: miter; stroke-miterlimit: 4; fill: url(&quot;#SVGID_118_201915&quot;); fill-rule: nonzero; opacity: 1" paint-order="stroke" transform=" translate(-66.43827118229522, -50.41149999999999)" d="M 72.908 64.021 C 69.205 61.702 65.941 58.837 62.002 56.878 L 62.002 56.878 C 55.874 53.833 48.896 52.741 42.109 53.385 L 42.109 53.385 C 42.483000000000004 52.72 42.878 52.064 43.294000000000004 51.422999999999995 L 43.294000000000004 51.422999999999995 C 45.89 47.413 50.253 44.800999999999995 55.028000000000006 44.791 L 55.028000000000006 44.791 C 57.87200000000001 44.784 61.202000000000005 45.635999999999996 64.747 48.303999999999995 L 64.747 48.303999999999995 C 73.112 54.590999999999994 76.728 58.05199999999999 79.371 56.17399999999999 L 79.371 56.17399999999999 C 82.014 54.294999999999995 75.664 42.242999999999995 70.50099999999999 37.67299999999999 L 70.50099999999999 37.67299999999999 C 68.58099999999999 35.97399999999999 67.16799999999999 35.222999999999985 66.41 35.36499999999999 L 66.41 35.36499999999999 C 68.975 34.79799999999999 71.64399999999999 34.50099999999999 74.378 34.50099999999999 L 74.378 34.50099999999999 C 76.647 34.50099999999999 78.871 34.70599999999999 81.027 35.09999999999999 L 81.027 35.09999999999999 C 84.463 38.41699999999999 87.31400000000001 42.35599999999999 89.104 46.65199999999999 L 89.104 46.65199999999999 C 91.324 51.97999999999999 91.92 59.87699999999999 87.085 64.02099999999999 L 87.085 64.02099999999999 C 85.198 65.63699999999999 82.90299999999999 66.32199999999999 80.55999999999999 66.32199999999999 L 80.55999999999999 66.32199999999999 C 77.89199999999998 66.32199999999999 75.16299999999998 65.43399999999998 72.90799999999999 64.02099999999999" stroke-linecap="round"></path>
</g>
		<g transform="matrix(2.8987615294867255 0 0 -2.898761529486726 -3.834042324203267 74.6265831159503)">
<radialGradient id="SVGID_119_201916" gradientUnits="userSpaceOnUse" gradientTransform="matrix(9.334444 0 0 -9.334444 71.14962 43.585102)" cx="0" cy="0" r="1" fx="0" fy="0">
<stop offset="0%" style="stop-color: #e3f3f6; stop-opacity: 1"></stop>
<stop offset="24.860056999999998%" style="stop-color: #e3f3f6; stop-opacity: 1"></stop>
<stop offset="79.1444%" style="stop-color: #5492d9; stop-opacity: 1"></stop>
<stop offset="81.16722800000001%" style="stop-color: #5492d9; stop-opacity: 1"></stop>
<stop offset="100%" style="stop-color: #436dc0; stop-opacity: 1"></stop>
</radialGradient>
<path style="stroke: none; stroke-width: 1px; stroke-dasharray: none; stroke-linecap: butt; stroke-dashoffset: 0; stroke-linejoin: miter; stroke-miterlimit: 4; fill: url(&quot;#SVGID_119_201916&quot;); fill-rule: nonzero; opacity: 1" paint-order="stroke" transform=" translate(-73.35145808251751, -45.757201147943626)" d="M 78.406 50.433 C 77.391 48.234 76.158 46.125 74.851 44.088 L 74.851 44.088 C 73.525 42.019 72.082 39.98 70.381 38.2 L 70.381 38.2 C 69.429 37.202 67.91 35.385 66.41 35.364 L 66.41 35.364 C 66.371 35.275999999999996 67.679 35.483 67.782 35.519 L 67.782 35.519 C 68.22699999999999 35.677 68.65299999999999 35.9 69.06 36.138999999999996 L 69.06 36.138999999999996 C 69.944 36.653999999999996 70.779 37.275999999999996 71.543 37.958 L 71.543 37.958 C 73.37400000000001 39.591 74.90700000000001 41.559999999999995 76.224 43.623999999999995 L 76.224 43.623999999999995 C 77.60300000000001 45.785 78.789 48.098 79.572 50.544 L 79.572 50.544 C 80.011 51.916 81.049 55.208999999999996 79.37100000000001 56.172 L 79.37100000000001 56.172 C 80.67600000000002 54.824 79.02900000000001 51.782999999999994 78.406 50.433" stroke-linecap="round"></path>
</g>
		<g transform="matrix(2.8987615294867255 0 0 -2.898761529486726 18.573869056800163 -36.07073909216808)">
<linearGradient id="SVGID_120_201917" gradientUnits="userSpaceOnUse" gradientTransform="matrix(40.319252 21.438127 21.438127 -40.319252 65.479393 72.374481)" x1="0" y1="0" x2="1" y2="0">
<stop offset="0%" style="stop-color: #e3f3f6; stop-opacity: 1"></stop>
<stop offset="47.463809%" style="stop-color: #5492d9; stop-opacity: 1"></stop>
<stop offset="55.311%" style="stop-color: #5492d9; stop-opacity: 1"></stop>
<stop offset="59.645479%" style="stop-color: #5492d9; stop-opacity: 1"></stop>
<stop offset="100%" style="stop-color: #436dc0; stop-opacity: 1"></stop>
</linearGradient>
<path style="stroke: none; stroke-width: 1px; stroke-dasharray: none; stroke-linecap: butt; stroke-dashoffset: 0; stroke-linejoin: miter; stroke-miterlimit: 4; fill: url(&quot;#SVGID_120_201917&quot;); fill-rule: nonzero; opacity: 1" paint-order="stroke" transform=" translate(-81.08162531188981, -83.94500000000001)" d="M 73.863 108.499 C 65.096 108.38 57.068 105.21199999999999 50.785 100.011 L 50.785 100.011 C 51.427 100.532 52.123999999999995 100.98299999999999 52.857 101.371 L 52.857 101.371 C 56.216 103.14999999999999 65.191 107.03699999999999 74.113 103.481 L 74.113 103.481 C 75.05799999999999 103.104 75.89 102.636 76.615 102.086 L 76.615 102.086 C 84.53 100 101.159 92.917 107.065 69.674 L 107.065 69.674 C 107.291 69.278 107.495 68.887 107.679 68.507 L 107.679 68.507 C 109.666 64.345 109.881 61.294000000000004 109.346 59.38700000000001 L 109.346 59.38700000000001 C 110.75500000000001 63.43900000000001 111.474 67.816 111.36800000000001 72.376 L 111.36800000000001 72.376 C 110.906 92.394 94.33200000000001 108.50300000000001 74.36200000000001 108.50300000000001 L 74.36200000000001 108.50300000000001 C 74.19600000000001 108.50300000000001 74.02900000000001 108.50200000000001 73.86300000000001 108.49900000000001" stroke-linecap="round"></path>
</g>
		<g transform="matrix(2.8987615294867255 0 0 -2.898761529486726 70.94599586844606 -1.5522867990401323)">
<radialGradient id="SVGID_121_201918" gradientUnits="userSpaceOnUse" gradientTransform="matrix(12.155175 0 0 -12.155175 99.097938 72.209686)" cx="0" cy="0" r="1" fx="0" fy="0">
<stop offset="0%" style="stop-color: #e3f3f6; stop-opacity: 1"></stop>
<stop offset="24.860056999999998%" style="stop-color: #e3f3f6; stop-opacity: 1"></stop>
<stop offset="79.1444%" style="stop-color: #5492d9; stop-opacity: 1"></stop>
<stop offset="81.16722800000001%" style="stop-color: #5492d9; stop-opacity: 1"></stop>
<stop offset="100%" style="stop-color: #436dc0; stop-opacity: 1"></stop>
</radialGradient>
<path style="stroke: none; stroke-width: 1px; stroke-dasharray: none; stroke-linecap: butt; stroke-dashoffset: 0; stroke-linejoin: miter; stroke-miterlimit: 4; fill: url(&quot;#SVGID_121_201918&quot;); fill-rule: nonzero; opacity: 1" paint-order="stroke" transform=" translate(-99.14869508596648, -72.037)" d="M 88.474 83.659 C 90.092 85.784 94.303 82.283 95.653 81.23 L 95.653 81.23 C 98.129 79.299 100.38900000000001 77.083 102.476 74.741 L 102.476 74.741 C 104.587 72.371 106.511 69.812 107.824 66.907 L 107.824 66.907 C 108.859 64.615 109.792 61.937 109.346 59.385999999999996 L 109.346 59.385999999999996 C 110.34700000000001 62.022 109.60900000000001 65.104 108.644 67.633 L 108.644 67.633 C 107.456 70.746 105.5 73.493 103.277 75.955 L 103.277 75.955 C 101.07600000000001 78.39099999999999 98.587 80.619 95.82000000000001 82.396 L 95.82000000000001 82.396 C 94.80300000000001 83.05 92.16000000000001 84.688 90.268 84.688 L 90.268 84.688 C 89.485 84.688 88.83 84.407 88.474 83.659" stroke-linecap="round"></path>
</g>
</g>
</g>
<g transform="matrix(1.9211538461538462 0 0 1.9211538461538462 641.4007913161056 721.2211450743918)" id="text-logo">
<g style="" paint-order="stroke">
		<g transform="matrix(1 0 0 1 0 0)" id="text-logo-path-0">
<path style="stroke: none; stroke-width: 0; stroke-dasharray: none; stroke-linecap: butt; stroke-dashoffset: 0; stroke-linejoin: miter; stroke-miterlimit: 4; fill: #3f79c3; fill-rule: nonzero; opacity: 1" paint-order="stroke" transform=" translate(-310.375, 11.695)" d="M 18.98 0 L 3.15 0 L 3.15 -23.39 L 5.41 -23.39 L 5.41 -2.11 L 18.98 -2.11 L 18.98 0 Z M 24.64 -11.65 L 24.64 -11.65 Q 24.64 -8.2 26.19 -5.45 Q 27.73 -2.71 30.44 -1.19 Q 33.14 0.33 36.5 0.33 L 36.5 0.33 Q 38.97 0.33 41.15 -0.56 Q 43.34 -1.44 44.91 -3.01 Q 46.49 -4.58 47.4 -6.82 Q 48.3 -9.06 48.3 -11.65 L 48.3 -11.65 Q 48.3 -15.14 46.75 -17.91 Q 45.2 -20.69 42.51 -22.21 Q 39.82 -23.74 36.5 -23.74 L 36.5 -23.74 Q 33.14 -23.74 30.44 -22.21 Q 27.73 -20.69 26.19 -17.91 Q 24.64 -15.14 24.64 -11.65 Z M 26.99 -11.65 L 26.99 -11.65 Q 26.99 -14.51 28.22 -16.76 Q 29.46 -19.01 31.63 -20.25 Q 33.79 -21.48 36.5 -21.48 L 36.5 -21.48 Q 40.57 -21.48 43.26 -18.73 Q 45.96 -15.97 45.96 -11.65 L 45.96 -11.65 Q 45.96 -7.39 43.26 -4.65 Q 40.57 -1.91 36.5 -1.91 L 36.5 -1.91 Q 33.81 -1.91 31.64 -3.14 Q 29.48 -4.37 28.23 -6.6 Q 26.99 -8.83 26.99 -11.65 Z M 60.66 0 L 54.1 -23.39 L 56.73 -23.39 L 62.12 -2.56 L 69.26 -23.39 L 71.92 -23.39 L 79.02 -2.59 L 84.43 -23.39 L 87.06 -23.39 L 80.48 0 L 77.66 0 L 70.59 -20.7 L 63.52 0 L 60.66 0 Z M 96.4 0 L 94.14 0 L 94.14 -23.39 L 103.53 -23.39 Q 107.42 -23.39 109.59 -21.68 Q 111.75 -19.97 111.75 -16.52 L 111.75 -16.52 Q 111.75 -13.38 109.65 -11.7 Q 107.55 -10.03 103.93 -10.03 L 103.93 -10.03 L 103.19 -10.03 L 112.03 0 L 109.21 0 L 100.61 -10.03 L 96.4 -10.03 L 96.4 0 Z M 96.4 -21.28 L 96.4 -11.87 L 103.47 -11.87 Q 106.29 -11.87 107.87 -13.04 Q 109.44 -14.21 109.44 -16.52 L 109.44 -16.52 Q 109.44 -21.28 103.47 -21.28 L 103.47 -21.28 L 96.4 -21.28 Z M 136.16 0 L 120.01 0 L 120.01 -23.39 L 136.16 -23.39 L 136.16 -21.28 L 122.27 -21.28 L 122.27 -12.92 L 134.47 -12.92 L 134.47 -10.81 L 122.27 -10.81 L 122.27 -2.11 L 136.16 -2.11 L 136.16 0 Z M 150.2 -9.48 L 141.12 -23.39 L 143.68 -23.39 L 151.36 -11.59 L 158.97 -23.39 L 161.52 -23.39 L 152.44 -9.48 L 152.44 0 L 150.2 0 L 150.2 -9.48 Z M 176.99 -11.65 L 176.99 -11.65 Q 176.99 -14.28 177.91 -16.54 Q 178.84 -18.79 180.46 -20.37 Q 182.09 -21.95 184.37 -22.84 Q 186.66 -23.74 189.3 -23.74 L 189.3 -23.74 Q 193.83 -23.74 197.46 -21.45 L 197.46 -21.45 L 197.46 -19.04 Q 193.71 -21.63 189.36 -21.63 L 189.36 -21.63 Q 184.93 -21.63 182.13 -18.85 Q 179.33 -16.07 179.33 -11.65 L 179.33 -11.65 Q 179.33 -7.27 182.13 -4.52 Q 184.93 -1.76 189.36 -1.76 L 189.36 -1.76 Q 192.5 -1.76 195.21 -3.05 L 195.21 -3.05 L 195.21 -10.61 L 186.85 -10.61 L 186.85 -12.55 L 197.46 -12.55 L 197.46 -1.91 Q 193.83 0.38 189.36 0.38 L 189.36 0.38 Q 185.79 0.38 182.97 -1.15 Q 180.15 -2.67 178.57 -5.42 Q 176.99 -8.17 176.99 -11.65 Z M 221.86 0 L 206.04 0 L 206.04 -23.39 L 208.3 -23.39 L 208.3 -2.11 L 221.86 -2.11 L 221.86 0 Z M 227.53 -11.65 L 227.53 -11.65 Q 227.53 -8.2 229.07 -5.45 Q 230.62 -2.71 233.32 -1.19 Q 236.03 0.33 239.38 0.33 L 239.38 0.33 Q 241.85 0.33 244.04 -0.56 Q 246.22 -1.44 247.8 -3.01 Q 249.37 -4.58 250.28 -6.82 Q 251.18 -9.06 251.18 -11.65 L 251.18 -11.65 Q 251.18 -15.14 249.63 -17.91 Q 248.08 -20.69 245.39 -22.21 Q 242.7 -23.74 239.38 -23.74 L 239.38 -23.74 Q 236.03 -23.74 233.32 -22.21 Q 230.62 -20.69 229.07 -17.91 Q 227.53 -15.14 227.53 -11.65 Z M 229.87 -11.65 L 229.87 -11.65 Q 229.87 -14.51 231.1 -16.76 Q 232.34 -19.01 234.51 -20.25 Q 236.67 -21.48 239.38 -21.48 L 239.38 -21.48 Q 243.45 -21.48 246.15 -18.73 Q 248.84 -15.97 248.84 -11.65 L 248.84 -11.65 Q 248.84 -7.39 246.15 -4.65 Q 243.45 -1.91 239.38 -1.91 L 239.38 -1.91 Q 236.69 -1.91 234.52 -3.14 Q 232.36 -4.37 231.11 -6.6 Q 229.87 -8.83 229.87 -11.65 Z M 269.22 0 L 259.39 0 L 259.39 -23.39 L 268.57 -23.39 Q 270.17 -23.39 271.45 -23.08 Q 272.74 -22.76 273.74 -22.1 Q 274.73 -21.43 275.28 -20.3 Q 275.83 -19.17 275.83 -17.65 L 275.83 -17.65 Q 275.83 -15.56 274.55 -14.19 Q 273.27 -12.82 271.26 -12.42 L 271.26 -12.42 Q 274.2 -12.04 275.76 -10.46 Q 277.32 -8.88 277.32 -6.33 L 277.32 -6.33 Q 277.32 -3.17 275.15 -1.59 Q 272.97 0 269.22 0 L 269.22 0 Z M 261.65 -11.29 L 261.65 -2.11 L 269.06 -2.11 Q 271.73 -2.11 273.31 -3.2 Q 274.9 -4.3 274.9 -6.69 L 274.9 -6.69 Q 274.9 -9.01 273.24 -10.15 Q 271.58 -11.29 268.79 -11.29 L 268.79 -11.29 L 261.65 -11.29 Z M 261.65 -21.28 L 261.65 -13.23 L 268.18 -13.23 Q 270.55 -13.23 271.99 -14.27 Q 273.44 -15.31 273.44 -17.3 L 273.44 -17.3 Q 273.44 -21.28 268.41 -21.28 L 268.41 -21.28 L 261.65 -21.28 Z M 284.8 0 L 282.34 0 L 292.42 -23.39 L 295.24 -23.39 L 305.3 0 L 302.81 0 L 299.56 -7.72 L 288.06 -7.72 L 284.8 0 Z M 293.82 -21.25 L 288.92 -9.73 L 298.7 -9.73 L 293.82 -21.25 Z M 327.67 0 L 311.85 0 L 311.85 -23.39 L 314.11 -23.39 L 314.11 -2.11 L 327.67 -2.11 L 327.67 0 Z M 345.22 -5.42 Q 343.64 -8.18 343.64 -11.65 Q 343.64 -15.12 345.22 -17.9 Q 346.8 -20.67 349.54 -22.2 Q 352.28 -23.74 355.65 -23.74 L 355.65 -23.74 Q 360.06 -23.74 363.7 -21.45 L 363.7 -21.45 L 363.7 -19.04 Q 360 -21.63 355.71 -21.63 L 355.71 -21.63 Q 351.53 -21.63 348.76 -18.83 Q 345.98 -16.02 345.98 -11.65 L 345.98 -11.65 Q 345.98 -8.78 347.25 -6.52 Q 348.52 -4.25 350.74 -3 Q 352.96 -1.76 355.71 -1.76 L 355.71 -1.76 Q 360 -1.76 363.7 -4.35 L 363.7 -4.35 L 363.7 -1.91 Q 360.06 0.38 355.65 0.38 L 355.65 0.38 Q 352.28 0.38 349.54 -1.14 Q 346.8 -2.66 345.22 -5.42 Z M 369.75 -11.65 L 369.75 -11.65 Q 369.75 -8.2 371.29 -5.45 Q 372.84 -2.71 375.54 -1.19 Q 378.25 0.33 381.6 0.33 L 381.6 0.33 Q 384.08 0.33 386.26 -0.56 Q 388.44 -1.44 390.02 -3.01 Q 391.6 -4.58 392.5 -6.82 Q 393.41 -9.06 393.41 -11.65 L 393.41 -11.65 Q 393.41 -15.14 391.85 -17.91 Q 390.3 -20.69 387.61 -22.21 Q 384.92 -23.74 381.6 -23.74 L 381.6 -23.74 Q 378.25 -23.74 375.54 -22.21 Q 372.84 -20.69 371.29 -17.91 Q 369.75 -15.14 369.75 -11.65 Z M 372.09 -11.65 L 372.09 -11.65 Q 372.09 -14.51 373.33 -16.76 Q 374.56 -19.01 376.73 -20.25 Q 378.9 -21.48 381.6 -21.48 L 381.6 -21.48 Q 385.67 -21.48 388.37 -18.73 Q 391.07 -15.97 391.07 -11.65 L 391.07 -11.65 Q 391.07 -7.39 388.37 -4.65 Q 385.67 -1.91 381.6 -1.91 L 381.6 -1.91 Q 378.91 -1.91 376.75 -3.14 Q 374.58 -4.37 373.34 -6.6 Q 372.09 -8.83 372.09 -11.65 Z M 403.66 0 L 401.38 0 L 401.38 -23.39 L 403.59 -23.39 L 417.84 -3.87 L 417.84 -23.39 L 420.13 -23.39 L 420.13 0 L 417.98 0 L 403.66 -19.44 L 403.66 0 Z M 427.95 -17.51 L 427.95 -17.51 Q 427.95 -19.49 429.02 -20.93 Q 430.09 -22.38 431.85 -23.08 Q 433.6 -23.77 435.77 -23.77 L 435.77 -23.77 Q 438.23 -23.77 440.25 -23.11 Q 442.28 -22.45 443.53 -21.55 L 443.53 -21.55 L 443.53 -19.04 Q 442.11 -20.09 440.04 -20.83 Q 437.96 -21.58 435.74 -21.58 L 435.74 -21.58 Q 433.15 -21.58 431.75 -20.5 Q 430.34 -19.42 430.34 -17.68 L 430.34 -17.68 Q 430.34 -16.9 430.62 -16.27 Q 430.89 -15.64 431.29 -15.21 Q 431.69 -14.78 432.43 -14.39 Q 433.17 -14 433.81 -13.75 Q 434.44 -13.5 435.47 -13.17 L 435.47 -13.17 L 438 -12.33 Q 439.38 -11.89 440.28 -11.52 Q 441.18 -11.16 442.1 -10.6 Q 443.01 -10.04 443.53 -9.4 Q 444.04 -8.77 444.36 -7.84 Q 444.69 -6.91 444.69 -5.71 L 444.69 -5.71 Q 444.69 -2.81 442.55 -1.24 Q 440.42 0.33 436.97 0.33 L 436.97 0.33 Q 434.44 0.33 432.13 -0.38 Q 429.81 -1.1 428.17 -2.17 L 428.17 -2.17 L 428.17 -4.55 Q 429.91 -3.37 432.27 -2.56 Q 434.63 -1.76 436.97 -1.76 L 436.97 -1.76 Q 439.67 -1.76 441.03 -2.8 Q 442.38 -3.83 442.38 -5.61 L 442.38 -5.61 Q 442.38 -6.56 442.07 -7.25 Q 441.77 -7.95 441.06 -8.48 Q 440.35 -9.01 439.52 -9.4 Q 438.68 -9.78 437.32 -10.23 L 437.32 -10.23 L 434.15 -11.26 Q 433.07 -11.6 432.3 -11.91 Q 431.54 -12.22 430.65 -12.74 Q 429.76 -13.26 429.22 -13.89 Q 428.68 -14.51 428.32 -15.44 Q 427.95 -16.37 427.95 -17.51 Z M 452.27 -9.7 L 452.27 -9.7 L 452.27 -23.39 L 454.61 -23.39 L 454.61 -9.66 Q 454.61 -6.03 456.38 -3.95 Q 458.16 -1.88 461.71 -1.88 L 461.71 -1.88 Q 465.3 -1.88 467.07 -3.95 Q 468.85 -6.03 468.85 -9.66 L 468.85 -9.66 L 468.85 -23.39 L 471.21 -23.39 L 471.21 -9.7 Q 471.21 -7.44 470.64 -5.63 Q 470.08 -3.82 468.94 -2.47 Q 467.8 -1.13 465.97 -0.4 Q 464.14 0.33 461.71 0.33 L 461.71 0.33 Q 459.3 0.33 457.48 -0.4 Q 455.65 -1.13 454.52 -2.47 Q 453.39 -3.82 452.83 -5.63 Q 452.27 -7.44 452.27 -9.7 Z M 496.18 0 L 480.36 0 L 480.36 -23.39 L 482.62 -23.39 L 482.62 -2.11 L 496.18 -2.11 L 496.18 0 Z M 508.48 -21.28 L 500.28 -21.28 L 500.28 -23.39 L 518.92 -23.39 L 518.92 -21.28 L 510.72 -21.28 L 510.72 0 L 508.48 0 L 508.48 -21.28 Z M 525.07 0 L 522.61 0 L 532.69 -23.39 L 535.51 -23.39 L 545.57 0 L 543.08 0 L 539.83 -7.72 L 528.32 -7.72 L 525.07 0 Z M 534.08 -21.25 L 529.19 -9.73 L 538.97 -9.73 L 534.08 -21.25 Z M 554.16 0 L 551.89 0 L 551.89 -23.39 L 554.1 -23.39 L 568.34 -3.87 L 568.34 -23.39 L 570.63 -23.39 L 570.63 0 L 568.49 0 L 554.16 -19.44 L 554.16 0 Z M 585.3 -21.28 L 577.1 -21.28 L 577.1 -23.39 L 595.74 -23.39 L 595.74 -21.28 L 587.54 -21.28 L 587.54 0 L 585.3 0 L 585.3 -21.28 Z M 600.86 -17.51 L 600.86 -17.51 Q 600.86 -19.49 601.93 -20.93 Q 603 -22.38 604.76 -23.08 Q 606.51 -23.77 608.68 -23.77 L 608.68 -23.77 Q 611.14 -23.77 613.16 -23.11 Q 615.19 -22.45 616.43 -21.55 L 616.43 -21.55 L 616.43 -19.04 Q 615.02 -20.09 612.95 -20.83 Q 610.87 -21.58 608.65 -21.58 L 608.65 -21.58 Q 606.06 -21.58 604.66 -20.5 Q 603.25 -19.42 603.25 -17.68 L 603.25 -17.68 Q 603.25 -16.9 603.53 -16.27 Q 603.8 -15.64 604.2 -15.21 Q 604.6 -14.78 605.34 -14.39 Q 606.08 -14 606.71 -13.75 Q 607.35 -13.5 608.38 -13.17 L 608.38 -13.17 L 610.91 -12.33 Q 612.28 -11.89 613.19 -11.52 Q 614.09 -11.16 615.01 -10.6 Q 615.92 -10.04 616.43 -9.4 Q 616.95 -8.77 617.27 -7.84 Q 617.6 -6.91 617.6 -5.71 L 617.6 -5.71 Q 617.6 -2.81 615.46 -1.24 Q 613.33 0.33 609.88 0.33 L 609.88 0.33 Q 607.35 0.33 605.04 -0.38 Q 602.72 -1.1 601.08 -2.17 L 601.08 -2.17 L 601.08 -4.55 Q 602.82 -3.37 605.18 -2.56 Q 607.54 -1.76 609.88 -1.76 L 609.88 -1.76 Q 612.58 -1.76 613.94 -2.8 Q 615.29 -3.83 615.29 -5.61 L 615.29 -5.61 Q 615.29 -6.56 614.98 -7.25 Q 614.68 -7.95 613.97 -8.48 Q 613.26 -9.01 612.43 -9.4 Q 611.59 -9.78 610.23 -10.23 L 610.23 -10.23 L 607.05 -11.26 Q 605.98 -11.6 605.21 -11.91 Q 604.45 -12.22 603.56 -12.74 Q 602.67 -13.26 602.13 -13.89 Q 601.59 -14.51 601.23 -15.44 Q 600.86 -16.37 600.86 -17.51 Z" stroke-linecap="round"></path>
</g>
</g>
</g>
<g transform="matrix(1.9211538461538462 0 0 1.9211538461538462 641.750876577524 802.411960463234)" id="tagline-7d4cbc79-947f-4c25-ad30-e36aa35d0f9d-logo">
<g style="" paint-order="stroke">
		<g transform="matrix(1 0 0 1 0 0)" id="tagline-7d4cbc79-947f-4c25-ad30-e36aa35d0f9d-logo-path-0">
<path style="stroke: none; stroke-width: 0; stroke-dasharray: none; stroke-linecap: butt; stroke-dashoffset: 0; stroke-linejoin: miter; stroke-miterlimit: 4; fill: #083973; fill-rule: nonzero; opacity: 1" paint-order="stroke" transform=" translate(-196.59999999999997, 9.655000000000001)" d="M 9.24 0 L 2.67 0 L 2.67 -19.32 L 8.9 -19.32 Q 10.47 -19.32 11.43 -19.21 L 11.43 -19.21 Q 13.75 -18.89 15 -17.68 Q 16.24 -16.46 16.24 -14.45 L 16.24 -14.45 Q 16.24 -11.4 13.07 -10.34 L 13.07 -10.34 Q 16.94 -9.39 16.94 -5.71 L 16.94 -5.71 Q 16.94 -4.44 16.5 -3.42 Q 16.06 -2.39 15.32 -1.74 Q 14.57 -1.08 13.69 -0.68 Q 12.81 -0.29 11.81 -0.14 L 11.81 -0.14 Q 10.86 0 9.24 0 L 9.24 0 Z M 5.74 -8.79 L 5.74 -2.46 L 9.54 -2.46 Q 10.5 -2.46 10.87 -2.49 L 10.87 -2.49 Q 12.11 -2.6 12.9 -3.41 Q 13.69 -4.22 13.69 -5.58 L 13.69 -5.58 Q 13.69 -8.38 10.84 -8.71 L 10.84 -8.71 Q 10.28 -8.79 9.38 -8.79 L 9.38 -8.79 L 5.74 -8.79 Z M 5.74 -16.88 L 5.74 -11.17 L 9.11 -11.17 Q 9.88 -11.17 10.55 -11.28 L 10.55 -11.28 Q 12.99 -11.66 12.99 -14.11 L 12.99 -14.11 Q 12.99 -15.34 12.28 -16.01 Q 11.58 -16.68 10.36 -16.8 L 10.36 -16.8 Q 9.69 -16.88 8.9 -16.88 L 8.9 -16.88 L 5.74 -16.88 Z M 32.56 0 L 29.48 0 L 29.48 -19.32 L 36.14 -19.32 Q 37.87 -19.32 38.8 -19.21 L 38.8 -19.21 Q 41.06 -18.91 42.38 -17.66 Q 43.7 -16.41 43.7 -14.05 L 43.7 -14.05 Q 43.7 -12.25 42.72 -11.09 Q 41.74 -9.93 40.12 -9.43 L 40.12 -9.43 Q 42.44 -8.42 42.77 -4.99 L 42.77 -4.99 Q 42.93 -3.12 43.24 -1.95 Q 43.55 -0.78 44.12 0 L 44.12 0 L 40.73 0 Q 40.05 -1.71 39.75 -4.59 L 39.75 -4.59 Q 39.56 -6.21 38.9 -7.08 Q 38.24 -7.96 36.97 -8.04 L 36.97 -8.04 Q 36.49 -8.07 35.55 -8.07 L 35.55 -8.07 L 32.56 -8.07 L 32.56 0 Z M 32.56 -16.88 L 32.56 -10.45 L 35.77 -10.45 Q 37.03 -10.45 37.5 -10.5 L 37.5 -10.5 Q 38.84 -10.64 39.64 -11.42 Q 40.44 -12.2 40.44 -13.66 L 40.44 -13.66 Q 40.44 -15.13 39.76 -15.87 Q 39.08 -16.6 37.76 -16.78 L 37.76 -16.78 Q 37.09 -16.88 35.97 -16.88 L 35.97 -16.88 L 32.56 -16.88 Z M 59.21 0 L 56.13 0 L 56.13 -19.32 L 59.21 -19.32 L 59.21 0 Z M 78.88 0 L 72.76 0 L 72.76 -19.32 L 78.99 -19.32 Q 80.47 -19.32 81.45 -19.21 L 81.45 -19.21 Q 83.16 -19 84.56 -18.34 Q 85.96 -17.68 87.02 -16.55 Q 88.08 -15.42 88.66 -13.73 Q 89.25 -12.03 89.25 -9.88 L 89.25 -9.88 Q 89.25 -7.77 88.64 -6.01 Q 88.04 -4.25 86.98 -3.04 Q 85.91 -1.82 84.47 -1.07 Q 83.04 -0.31 81.34 -0.11 L 81.34 -0.11 Q 80.36 0 78.88 0 L 78.88 0 Z M 75.83 -16.88 L 75.83 -2.46 L 78.61 -2.46 Q 80.19 -2.46 80.81 -2.57 L 80.81 -2.57 Q 83.17 -2.91 84.56 -4.82 Q 85.94 -6.73 85.94 -9.88 L 85.94 -9.88 Q 85.94 -12.88 84.61 -14.64 Q 83.28 -16.41 80.93 -16.75 L 80.93 -16.75 Q 80.17 -16.88 78.72 -16.88 L 78.72 -16.88 L 75.83 -16.88 Z M 100.46 -9.57 L 100.46 -9.57 Q 100.46 -11.81 101.15 -13.71 Q 101.84 -15.61 103.06 -16.93 Q 104.29 -18.24 106.02 -18.98 Q 107.75 -19.71 109.76 -19.71 L 109.76 -19.71 Q 113.42 -19.71 115.48 -17.9 Q 117.54 -16.09 117.85 -13.1 L 117.85 -13.1 L 117.88 -12.82 L 114.8 -12.82 L 114.75 -13.1 Q 114.35 -15.12 113.09 -16.24 Q 111.83 -17.36 109.7 -17.36 L 109.7 -17.36 Q 107.02 -17.36 105.41 -15.26 Q 103.8 -13.15 103.8 -9.72 L 103.8 -9.72 Q 103.8 -6.15 105.38 -4.05 Q 106.97 -1.96 109.56 -1.96 L 109.56 -1.96 Q 111.71 -1.96 113.13 -3.37 Q 114.54 -4.79 114.66 -7.11 L 114.66 -7.11 L 110.34 -7.11 L 110.34 -9.57 L 117.66 -9.57 L 117.66 0 L 115.07 0 L 114.96 -3.28 L 114.1 -1.39 Q 112.44 0.4 109.22 0.4 L 109.22 0.4 Q 106.52 0.4 104.52 -0.87 Q 102.52 -2.13 101.49 -4.38 Q 100.46 -6.63 100.46 -9.57 Z M 144.18 0 L 130.84 0 L 130.84 -19.32 L 143.91 -19.32 L 143.91 -16.88 L 133.92 -16.88 L 133.92 -10.9 L 143.13 -10.9 L 143.13 -8.45 L 133.92 -8.45 L 133.92 -2.46 L 144.18 -2.46 L 144.18 0 Z M 176.03 -16.88 L 169.28 -16.88 L 169.28 -19.32 L 185.84 -19.32 L 185.84 -16.88 L 179.08 -16.88 L 179.08 0 L 176.03 0 L 176.03 -16.88 Z M 200.36 0 L 197.28 0 L 197.28 -19.32 L 200.36 -19.32 L 200.36 -10.72 L 210.27 -10.72 L 210.27 -19.32 L 213.32 -19.32 L 213.32 0 L 210.27 0 L 210.27 -8.23 L 200.36 -8.23 L 200.36 0 Z M 240.21 0 L 226.87 0 L 226.87 -19.32 L 239.94 -19.32 L 239.94 -16.88 L 229.95 -16.88 L 229.95 -10.9 L 239.16 -10.9 L 239.16 -8.45 L 229.95 -8.45 L 229.95 -2.46 L 240.21 -2.46 L 240.21 0 Z M 265.87 -9.57 L 265.87 -9.57 Q 265.87 -11.81 266.56 -13.71 Q 267.25 -15.61 268.47 -16.93 Q 269.7 -18.24 271.43 -18.98 Q 273.16 -19.71 275.17 -19.71 L 275.17 -19.71 Q 278.83 -19.71 280.89 -17.9 Q 282.94 -16.09 283.26 -13.1 L 283.26 -13.1 L 283.29 -12.82 L 280.21 -12.82 L 280.16 -13.1 Q 279.76 -15.12 278.5 -16.24 Q 277.24 -17.36 275.11 -17.36 L 275.11 -17.36 Q 272.43 -17.36 270.82 -15.26 Q 269.2 -13.15 269.2 -9.72 L 269.2 -9.72 Q 269.2 -6.15 270.79 -4.05 Q 272.38 -1.96 274.97 -1.96 L 274.97 -1.96 Q 277.12 -1.96 278.54 -3.37 Q 279.95 -4.79 280.07 -7.11 L 280.07 -7.11 L 275.75 -7.11 L 275.75 -9.57 L 283.07 -9.57 L 283.07 0 L 280.48 0 L 280.37 -3.28 L 279.51 -1.39 Q 277.84 0.4 274.63 0.4 L 274.63 0.4 Q 271.93 0.4 269.93 -0.87 Q 267.93 -2.13 266.9 -4.38 Q 265.87 -6.63 265.87 -9.57 Z M 309.59 0 L 296.25 0 L 296.25 -19.32 L 299.33 -19.32 L 299.33 -2.54 L 309.59 -2.54 L 309.59 0 Z M 319.19 -9.67 L 319.19 -9.67 Q 319.19 -11.91 319.82 -13.76 Q 320.45 -15.61 321.63 -16.93 Q 322.8 -18.25 324.57 -18.98 Q 326.33 -19.71 328.52 -19.71 L 328.52 -19.71 Q 331.42 -19.71 333.54 -18.45 Q 335.66 -17.19 336.74 -14.92 Q 337.82 -12.66 337.82 -9.67 Q 337.82 -6.67 336.74 -4.42 Q 335.66 -2.16 333.54 -0.88 Q 331.42 0.4 328.52 0.4 L 328.52 0.4 Q 325.61 0.4 323.48 -0.88 Q 321.35 -2.16 320.27 -4.42 Q 319.19 -6.67 319.19 -9.67 Z M 322.5 -9.67 L 322.5 -9.67 Q 322.5 -6.07 324.1 -4.01 Q 325.7 -1.96 328.52 -1.96 L 328.52 -1.96 Q 331.32 -1.96 332.92 -4.01 Q 334.52 -6.07 334.52 -9.67 L 334.52 -9.67 Q 334.52 -13.28 332.93 -15.32 Q 331.34 -17.36 328.52 -17.36 L 328.52 -17.36 Q 325.69 -17.36 324.1 -15.32 Q 322.5 -13.28 322.5 -9.67 Z M 356.95 0 L 350.37 0 L 350.37 -19.32 L 356.6 -19.32 Q 358.18 -19.32 359.13 -19.21 L 359.13 -19.21 Q 361.46 -18.89 362.7 -17.68 Q 363.95 -16.46 363.95 -14.45 L 363.95 -14.45 Q 363.95 -11.4 360.77 -10.34 L 360.77 -10.34 Q 364.64 -9.39 364.64 -5.71 L 364.64 -5.71 Q 364.64 -4.44 364.21 -3.42 Q 363.77 -2.39 363.02 -1.74 Q 362.28 -1.08 361.4 -0.68 Q 360.51 -0.29 359.52 -0.14 L 359.52 -0.14 Q 358.56 0 356.95 0 L 356.95 0 Z M 353.45 -8.79 L 353.45 -2.46 L 357.25 -2.46 Q 358.2 -2.46 358.57 -2.49 L 358.57 -2.49 Q 359.82 -2.6 360.6 -3.41 Q 361.39 -4.22 361.39 -5.58 L 361.39 -5.58 Q 361.39 -8.38 358.55 -8.71 L 358.55 -8.71 Q 357.98 -8.79 357.08 -8.79 L 357.08 -8.79 L 353.45 -8.79 Z M 353.45 -16.88 L 353.45 -11.17 L 356.81 -11.17 Q 357.59 -11.17 358.26 -11.28 L 358.26 -11.28 Q 360.69 -11.66 360.69 -14.11 L 360.69 -14.11 Q 360.69 -15.34 359.99 -16.01 Q 359.28 -16.68 358.07 -16.8 L 358.07 -16.8 Q 357.4 -16.88 356.6 -16.88 L 356.6 -16.88 L 353.45 -16.88 Z M 390.53 0 L 377.18 0 L 377.18 -19.32 L 390.25 -19.32 L 390.25 -16.88 L 380.26 -16.88 L 380.26 -10.9 L 389.47 -10.9 L 389.47 -8.45 L 380.26 -8.45 L 380.26 -2.46 L 390.53 -2.46 L 390.53 0 Z" stroke-linecap="round"></path>
</g>
</g>
</g>
</svg>