<?xml version="1.0"?>
<svg width="1280" height="1024" xmlns="http://www.w3.org/2000/svg" xmlns:svg="http://www.w3.org/2000/svg" version="1.1" xml:space="preserve">
 <desc>Created with Fabric.js 4.4.0</desc>

 <g class="layer">
  <title>Layer 1</title>
  <g id="background-logo" transform="matrix(1 0 0 1 0 0) matrix(1 0 0 1 640 512)">
   <rect fill="rgb(255,255,255)" fill-opacity="0" fill-rule="nonzero" height="1024" id="svg_1" stroke-dashoffset="0" stroke-miterlimit="4" stroke-width="0" width="1280" x="-640" y="-512"/>
  </g>
  <g id="tagline-7d4cbc79-947f-4c25-ad30-e36aa35d0f9d-logo" transform="matrix(1.92115 0 0 1.92115 641.751 802.412)">
   <g id="svg_23">
    <g id="tagline-7d4cbc79-947f-4c25-ad30-e36aa35d0f9d-logo-path-0">
     <path d="m-116.3,-392.52l-6.57,0l0,-19.32l6.23,0q1.57,0 2.53,0.11l0,0q2.32,0.32 3.57,1.53q1.24,1.22 1.24,3.23l0,0q0,3.05 -3.17,4.11l0,0q3.87,0.95 3.87,4.63l0,0q0,1.27 -0.44,2.29q-0.44,1.03 -1.18,1.68q-0.75,0.66 -1.63,1.06q-0.88,0.39 -1.88,0.54l0,0q-0.95,0.14 -2.57,0.14l0,0zm-3.5,-8.79l0,6.33l3.8,0q0.96,0 1.33,-0.03l0,0q1.24,-0.11 2.03,-0.92q0.79,-0.81 0.79,-2.17l0,0q0,-2.8 -2.85,-3.13l0,0q-0.56,-0.08 -1.46,-0.08l0,0l-3.64,0zm0,-8.09l0,5.71l3.37,0q0.77,0 1.44,-0.11l0,0q2.44,-0.38 2.44,-2.83l0,0q0,-1.23 -0.71,-1.9q-0.7,-0.67 -1.92,-0.79l0,0q-0.67,-0.08 -1.46,-0.08l0,0l-3.16,0zm26.82,16.88l-3.08,0l0,-19.32l6.66,0q1.73,0 2.66,0.11l0,0q2.26,0.3 3.58,1.55q1.32,1.25 1.32,3.61l0,0q0,1.8 -0.98,2.96q-0.98,1.16 -2.6,1.66l0,0q2.32,1.01 2.65,4.44l0,0q0.16,1.87 0.47,3.04q0.31,1.17 0.88,1.95l0,0l-3.39,0q-0.68,-1.71 -0.98,-4.59l0,0q-0.19,-1.62 -0.85,-2.49q-0.66,-0.88 -1.93,-0.96l0,0q-0.48,-0.03 -1.42,-0.03l0,0l-2.99,0l0,8.07zm0,-16.88l0,6.43l3.21,0q1.26,0 1.73,-0.05l0,0q1.34,-0.14 2.14,-0.92q0.8,-0.78 0.8,-2.24l0,0q0,-1.47 -0.68,-2.21q-0.68,-0.73 -2,-0.91l0,0q-0.67,-0.1 -1.79,-0.1l0,0l-3.41,0zm26.65,16.88l-3.08,0l0,-19.32l3.08,0l0,19.32zm19.67,0l-6.12,0l0,-19.32l6.23,0q1.48,0 2.46,0.11l0,0q1.71,0.21 3.11,0.87q1.4,0.66 2.46,1.79q1.06,1.13 1.64,2.82q0.59,1.7 0.59,3.85l0,0q0,2.11 -0.61,3.87q-0.6,1.76 -1.66,2.97q-1.07,1.22 -2.51,1.97q-1.43,0.76 -3.13,0.96l0,0q-0.98,0.11 -2.46,0.11l0,0zm-3.05,-16.88l0,14.42l2.78,0q1.58,0 2.2,-0.11l0,0q2.36,-0.34 3.75,-2.25q1.38,-1.91 1.38,-5.06l0,0q0,-3 -1.33,-4.76q-1.33,-1.77 -3.68,-2.11l0,0q-0.76,-0.13 -2.21,-0.13l0,0l-2.89,0zm24.63,7.31l0,0q0,-2.24 0.69,-4.14q0.69,-1.9 1.91,-3.22q1.23,-1.31 2.96,-2.05q1.73,-0.73 3.74,-0.73l0,0q3.66,0 5.72,1.81q2.06,1.81 2.37,4.8l0,0l0.03,0.28l-3.08,0l-0.05,-0.28q-0.4,-2.02 -1.66,-3.14q-1.26,-1.12 -3.39,-1.12l0,0q-2.68,0 -4.29,2.1q-1.61,2.11 -1.61,5.54l0,0q0,3.57 1.58,5.67q1.59,2.09 4.18,2.09l0,0q2.15,0 3.57,-1.41q1.41,-1.42 1.53,-3.74l0,0l-4.32,0l0,-2.46l7.32,0l0,9.57l-2.59,0l-0.11,-3.28l-0.86,1.89q-1.66,1.79 -4.88,1.79l0,0q-2.7,0 -4.7,-1.27q-2,-1.26 -3.03,-3.51q-1.03,-2.25 -1.03,-5.19zm43.72,9.57l-13.34,0l0,-19.32l13.07,0l0,2.44l-9.99,0l0,5.98l9.21,0l0,2.45l-9.21,0l0,5.99l10.26,0l0,2.46zm31.85,-16.88l-6.75,0l0,-2.44l16.56,0l0,2.44l-6.76,0l0,16.88l-3.05,0l0,-16.88zm24.33,16.88l-3.08,0l0,-19.32l3.08,0l0,8.6l9.91,0l0,-8.6l3.05,0l0,19.32l-3.05,0l0,-8.23l-9.91,0l0,8.23zm39.85,0l-13.34,0l0,-19.32l13.07,0l0,2.44l-9.99,0l0,5.98l9.21,0l0,2.45l-9.21,0l0,5.99l10.26,0l0,2.46zm25.66,-9.57l0,0q0,-2.24 0.69,-4.14q0.69,-1.9 1.91,-3.22q1.23,-1.31 2.96,-2.05q1.73,-0.73 3.74,-0.73l0,0q3.66,0 5.72,1.81q2.05,1.81 2.37,4.8l0,0l0.03,0.28l-3.08,0l-0.05,-0.28q-0.4,-2.02 -1.66,-3.14q-1.26,-1.12 -3.39,-1.12l0,0q-2.68,0 -4.29,2.1q-1.62,2.11 -1.62,5.54l0,0q0,3.57 1.59,5.67q1.59,2.09 4.18,2.09l0,0q2.15,0 3.57,-1.41q1.41,-1.42 1.53,-3.74l0,0l-4.32,0l0,-2.46l7.32,0l0,9.57l-2.59,0l-0.11,-3.28l-0.86,1.89q-1.67,1.79 -4.88,1.79l0,0q-2.7,0 -4.7,-1.27q-2,-1.26 -3.03,-3.51q-1.03,-2.25 -1.03,-5.19zm43.72,9.57l-13.34,0l0,-19.32l3.08,0l0,16.78l10.26,0l0,2.54zm9.6,-9.67l0,0q0,-2.24 0.63,-4.09q0.63,-1.85 1.81,-3.17q1.17,-1.32 2.94,-2.05q1.76,-0.73 3.95,-0.73l0,0q2.9,0 5.02,1.26q2.12,1.26 3.2,3.53q1.08,2.26 1.08,5.25q0,3 -1.08,5.25q-1.08,2.26 -3.2,3.54q-2.12,1.28 -5.02,1.28l0,0q-2.91,0 -5.04,-1.28q-2.13,-1.28 -3.21,-3.54q-1.08,-2.25 -1.08,-5.25zm3.31,0l0,0q0,3.6 1.6,5.66q1.6,2.05 4.42,2.05l0,0q2.8,0 4.4,-2.05q1.6,-2.06 1.6,-5.66l0,0q0,-3.61 -1.59,-5.65q-1.59,-2.04 -4.41,-2.04l0,0q-2.83,0 -4.42,2.04q-1.6,2.04 -1.6,5.65zm34.45,9.67l-6.58,0l0,-19.32l6.23,0q1.58,0 2.53,0.11l0,0q2.33,0.32 3.57,1.53q1.25,1.22 1.25,3.23l0,0q0,3.05 -3.18,4.11l0,0q3.87,0.95 3.87,4.63l0,0q0,1.27 -0.43,2.29q-0.44,1.03 -1.19,1.68q-0.74,0.66 -1.62,1.06q-0.89,0.39 -1.88,0.54l0,0q-0.96,0.14 -2.57,0.14l0,0zm-3.5,-8.79l0,6.33l3.8,0q0.95,0 1.32,-0.03l0,0q1.25,-0.11 2.03,-0.92q0.79,-0.81 0.79,-2.17l0,0q0,-2.8 -2.84,-3.13l0,0q-0.57,-0.08 -1.47,-0.08l0,0l-3.63,0zm0,-8.09l0,5.71l3.36,0q0.78,0 1.45,-0.11l0,0q2.43,-0.38 2.43,-2.83l0,0q0,-1.23 -0.7,-1.9q-0.71,-0.67 -1.92,-0.79l0,0q-0.67,-0.08 -1.47,-0.08l0,0l-3.15,0zm37.08,16.88l-13.35,0l0,-19.32l13.07,0l0,2.44l-9.99,0l0,5.98l9.21,0l0,2.45l-9.21,0l0,5.99l10.27,0l0,2.46z" fill="rgb(8,57,115)" fill-rule="nonzero" id="svg_24" stroke-dashoffset="0" stroke-miterlimit="4" stroke-width="0" transform="translate(-196.6 9.655)"/>
    </g>
   </g>
  </g>
 </g>
</svg>