<?xml version="1.0" encoding="UTF-8" standalone="no" ?>
<!DOCTYPE svg PUBLIC "-//W3C//DTD SVG 1.1//EN" "http://www.w3.org/Graphics/SVG/1.1/DTD/svg11.dtd">
<svg xmlns="http://www.w3.org/2000/svg" xmlns:xlink="http://www.w3.org/1999/xlink" version="1.1" width="640" height="480" viewBox="0 0 640 480" xml:space="preserve">
<desc>Created with Fabric.js 3.6.6</desc>
<defs>
</defs>
<g transform="matrix(0.9 0 0 0.9 303.46 45.17)" id="text-logo-path-0"  >
<path style="stroke: none; stroke-width: 0; stroke-dasharray: none; stroke-linecap: butt; stroke-dashoffset: 0; stroke-linejoin: miter; stroke-miterlimit: 4; fill: rgb(63,121,195); fill-rule: nonzero; opacity: 1;"  paint-order="stroke"  transform=" translate(-310.38, 11.7)" d="M 18.98 0 L 3.15 0 L 3.15 -23.39 L 5.41 -23.39 L 5.41 -2.11 L 18.98 -2.11 L 18.98 0 Z M 24.64 -11.65 L 24.64 -11.65 Q 24.64 -8.2 26.19 -5.45 Q 27.73 -2.71 30.44 -1.19 Q 33.14 0.33 36.5 0.33 L 36.5 0.33 Q 38.97 0.33 41.15 -0.56 Q 43.34 -1.44 44.91 -3.01 Q 46.49 -4.58 47.4 -6.82 Q 48.3 -9.06 48.3 -11.65 L 48.3 -11.65 Q 48.3 -15.14 46.75 -17.91 Q 45.2 -20.69 42.51 -22.21 Q 39.82 -23.74 36.5 -23.74 L 36.5 -23.74 Q 33.14 -23.74 30.44 -22.21 Q 27.73 -20.69 26.19 -17.91 Q 24.64 -15.14 24.64 -11.65 Z M 26.99 -11.65 L 26.99 -11.65 Q 26.99 -14.51 28.22 -16.76 Q 29.46 -19.01 31.63 -20.25 Q 33.79 -21.48 36.5 -21.48 L 36.5 -21.48 Q 40.57 -21.48 43.26 -18.73 Q 45.96 -15.97 45.96 -11.65 L 45.96 -11.65 Q 45.96 -7.39 43.26 -4.65 Q 40.57 -1.91 36.5 -1.91 L 36.5 -1.91 Q 33.81 -1.91 31.64 -3.14 Q 29.48 -4.37 28.23 -6.6 Q 26.99 -8.83 26.99 -11.65 Z M 60.66 0 L 54.1 -23.39 L 56.73 -23.39 L 62.12 -2.56 L 69.26 -23.39 L 71.92 -23.39 L 79.02 -2.59 L 84.43 -23.39 L 87.06 -23.39 L 80.48 0 L 77.66 0 L 70.59 -20.7 L 63.52 0 L 60.66 0 Z M 96.4 0 L 94.14 0 L 94.14 -23.39 L 103.53 -23.39 Q 107.42 -23.39 109.59 -21.68 Q 111.75 -19.97 111.75 -16.52 L 111.75 -16.52 Q 111.75 -13.38 109.65 -11.7 Q 107.55 -10.03 103.93 -10.03 L 103.93 -10.03 L 103.19 -10.03 L 112.03 0 L 109.21 0 L 100.61 -10.03 L 96.4 -10.03 L 96.4 0 Z M 96.4 -21.28 L 96.4 -11.87 L 103.47 -11.87 Q 106.29 -11.87 107.87 -13.04 Q 109.44 -14.21 109.44 -16.52 L 109.44 -16.52 Q 109.44 -21.28 103.47 -21.28 L 103.47 -21.28 L 96.4 -21.28 Z M 136.16 0 L 120.01 0 L 120.01 -23.39 L 136.16 -23.39 L 136.16 -21.28 L 122.27 -21.28 L 122.27 -12.92 L 134.47 -12.92 L 134.47 -10.81 L 122.27 -10.81 L 122.27 -2.11 L 136.16 -2.11 L 136.16 0 Z M 150.2 -9.48 L 141.12 -23.39 L 143.68 -23.39 L 151.36 -11.59 L 158.97 -23.39 L 161.52 -23.39 L 152.44 -9.48 L 152.44 0 L 150.2 0 L 150.2 -9.48 Z M 176.99 -11.65 L 176.99 -11.65 Q 176.99 -14.28 177.91 -16.54 Q 178.84 -18.79 180.46 -20.37 Q 182.09 -21.95 184.37 -22.84 Q 186.66 -23.74 189.3 -23.74 L 189.3 -23.74 Q 193.83 -23.74 197.46 -21.45 L 197.46 -21.45 L 197.46 -19.04 Q 193.71 -21.63 189.36 -21.63 L 189.36 -21.63 Q 184.93 -21.63 182.13 -18.85 Q 179.33 -16.07 179.33 -11.65 L 179.33 -11.65 Q 179.33 -7.27 182.13 -4.52 Q 184.93 -1.76 189.36 -1.76 L 189.36 -1.76 Q 192.5 -1.76 195.21 -3.05 L 195.21 -3.05 L 195.21 -10.61 L 186.85 -10.61 L 186.85 -12.55 L 197.46 -12.55 L 197.46 -1.91 Q 193.83 0.38 189.36 0.38 L 189.36 0.38 Q 185.79 0.38 182.97 -1.15 Q 180.15 -2.67 178.57 -5.42 Q 176.99 -8.17 176.99 -11.65 Z M 221.86 0 L 206.04 0 L 206.04 -23.39 L 208.3 -23.39 L 208.3 -2.11 L 221.86 -2.11 L 221.86 0 Z M 227.53 -11.65 L 227.53 -11.65 Q 227.53 -8.2 229.07 -5.45 Q 230.62 -2.71 233.32 -1.19 Q 236.03 0.33 239.38 0.33 L 239.38 0.33 Q 241.85 0.33 244.04 -0.56 Q 246.22 -1.44 247.8 -3.01 Q 249.37 -4.58 250.28 -6.82 Q 251.18 -9.06 251.18 -11.65 L 251.18 -11.65 Q 251.18 -15.14 249.63 -17.91 Q 248.08 -20.69 245.39 -22.21 Q 242.7 -23.74 239.38 -23.74 L 239.38 -23.74 Q 236.03 -23.74 233.32 -22.21 Q 230.62 -20.69 229.07 -17.91 Q 227.53 -15.14 227.53 -11.65 Z M 229.87 -11.65 L 229.87 -11.65 Q 229.87 -14.51 231.1 -16.76 Q 232.34 -19.01 234.51 -20.25 Q 236.67 -21.48 239.38 -21.48 L 239.38 -21.48 Q 243.45 -21.48 246.15 -18.73 Q 248.84 -15.97 248.84 -11.65 L 248.84 -11.65 Q 248.84 -7.39 246.15 -4.65 Q 243.45 -1.91 239.38 -1.91 L 239.38 -1.91 Q 236.69 -1.91 234.52 -3.14 Q 232.36 -4.37 231.11 -6.6 Q 229.87 -8.83 229.87 -11.65 Z M 269.22 0 L 259.39 0 L 259.39 -23.39 L 268.57 -23.39 Q 270.17 -23.39 271.45 -23.08 Q 272.74 -22.76 273.74 -22.1 Q 274.73 -21.43 275.28 -20.3 Q 275.83 -19.17 275.83 -17.65 L 275.83 -17.65 Q 275.83 -15.56 274.55 -14.19 Q 273.27 -12.82 271.26 -12.42 L 271.26 -12.42 Q 274.2 -12.04 275.76 -10.46 Q 277.32 -8.88 277.32 -6.33 L 277.32 -6.33 Q 277.32 -3.17 275.15 -1.59 Q 272.97 0 269.22 0 L 269.22 0 Z M 261.65 -11.29 L 261.65 -2.11 L 269.06 -2.11 Q 271.73 -2.11 273.31 -3.2 Q 274.9 -4.3 274.9 -6.69 L 274.9 -6.69 Q 274.9 -9.01 273.24 -10.15 Q 271.58 -11.29 268.79 -11.29 L 268.79 -11.29 L 261.65 -11.29 Z M 261.65 -21.28 L 261.65 -13.23 L 268.18 -13.23 Q 270.55 -13.23 271.99 -14.27 Q 273.44 -15.31 273.44 -17.3 L 273.44 -17.3 Q 273.44 -21.28 268.41 -21.28 L 268.41 -21.28 L 261.65 -21.28 Z M 284.8 0 L 282.34 0 L 292.42 -23.39 L 295.24 -23.39 L 305.3 0 L 302.81 0 L 299.56 -7.72 L 288.06 -7.72 L 284.8 0 Z M 293.82 -21.25 L 288.92 -9.73 L 298.7 -9.73 L 293.82 -21.25 Z M 327.67 0 L 311.85 0 L 311.85 -23.39 L 314.11 -23.39 L 314.11 -2.11 L 327.67 -2.11 L 327.67 0 Z M 345.22 -5.42 Q 343.64 -8.18 343.64 -11.65 Q 343.64 -15.12 345.22 -17.9 Q 346.8 -20.67 349.54 -22.2 Q 352.28 -23.74 355.65 -23.74 L 355.65 -23.74 Q 360.06 -23.74 363.7 -21.45 L 363.7 -21.45 L 363.7 -19.04 Q 360 -21.63 355.71 -21.63 L 355.71 -21.63 Q 351.53 -21.63 348.76 -18.83 Q 345.98 -16.02 345.98 -11.65 L 345.98 -11.65 Q 345.98 -8.78 347.25 -6.52 Q 348.52 -4.25 350.74 -3 Q 352.96 -1.76 355.71 -1.76 L 355.71 -1.76 Q 360 -1.76 363.7 -4.35 L 363.7 -4.35 L 363.7 -1.91 Q 360.06 0.38 355.65 0.38 L 355.65 0.38 Q 352.28 0.38 349.54 -1.14 Q 346.8 -2.66 345.22 -5.42 Z M 369.75 -11.65 L 369.75 -11.65 Q 369.75 -8.2 371.29 -5.45 Q 372.84 -2.71 375.54 -1.19 Q 378.25 0.33 381.6 0.33 L 381.6 0.33 Q 384.08 0.33 386.26 -0.56 Q 388.44 -1.44 390.02 -3.01 Q 391.6 -4.58 392.5 -6.82 Q 393.41 -9.06 393.41 -11.65 L 393.41 -11.65 Q 393.41 -15.14 391.85 -17.91 Q 390.3 -20.69 387.61 -22.21 Q 384.92 -23.74 381.6 -23.74 L 381.6 -23.74 Q 378.25 -23.74 375.54 -22.21 Q 372.84 -20.69 371.29 -17.91 Q 369.75 -15.14 369.75 -11.65 Z M 372.09 -11.65 L 372.09 -11.65 Q 372.09 -14.51 373.33 -16.76 Q 374.56 -19.01 376.73 -20.25 Q 378.9 -21.48 381.6 -21.48 L 381.6 -21.48 Q 385.67 -21.48 388.37 -18.73 Q 391.07 -15.97 391.07 -11.65 L 391.07 -11.65 Q 391.07 -7.39 388.37 -4.65 Q 385.67 -1.91 381.6 -1.91 L 381.6 -1.91 Q 378.91 -1.91 376.75 -3.14 Q 374.58 -4.37 373.34 -6.6 Q 372.09 -8.83 372.09 -11.65 Z M 403.66 0 L 401.38 0 L 401.38 -23.39 L 403.59 -23.39 L 417.84 -3.87 L 417.84 -23.39 L 420.13 -23.39 L 420.13 0 L 417.98 0 L 403.66 -19.44 L 403.66 0 Z M 427.95 -17.51 L 427.95 -17.51 Q 427.95 -19.49 429.02 -20.93 Q 430.09 -22.38 431.85 -23.08 Q 433.6 -23.77 435.77 -23.77 L 435.77 -23.77 Q 438.23 -23.77 440.25 -23.11 Q 442.28 -22.45 443.53 -21.55 L 443.53 -21.55 L 443.53 -19.04 Q 442.11 -20.09 440.04 -20.83 Q 437.96 -21.58 435.74 -21.58 L 435.74 -21.58 Q 433.15 -21.58 431.75 -20.5 Q 430.34 -19.42 430.34 -17.68 L 430.34 -17.68 Q 430.34 -16.9 430.62 -16.27 Q 430.89 -15.64 431.29 -15.21 Q 431.69 -14.78 432.43 -14.39 Q 433.17 -14 433.81 -13.75 Q 434.44 -13.5 435.47 -13.17 L 435.47 -13.17 L 438 -12.33 Q 439.38 -11.89 440.28 -11.52 Q 441.18 -11.16 442.1 -10.6 Q 443.01 -10.04 443.53 -9.4 Q 444.04 -8.77 444.36 -7.84 Q 444.69 -6.91 444.69 -5.71 L 444.69 -5.71 Q 444.69 -2.81 442.55 -1.24 Q 440.42 0.33 436.97 0.33 L 436.97 0.33 Q 434.44 0.33 432.13 -0.38 Q 429.81 -1.1 428.17 -2.17 L 428.17 -2.17 L 428.17 -4.55 Q 429.91 -3.37 432.27 -2.56 Q 434.63 -1.76 436.97 -1.76 L 436.97 -1.76 Q 439.67 -1.76 441.03 -2.8 Q 442.38 -3.83 442.38 -5.61 L 442.38 -5.61 Q 442.38 -6.56 442.07 -7.25 Q 441.77 -7.95 441.06 -8.48 Q 440.35 -9.01 439.52 -9.4 Q 438.68 -9.78 437.32 -10.23 L 437.32 -10.23 L 434.15 -11.26 Q 433.07 -11.6 432.3 -11.91 Q 431.54 -12.22 430.65 -12.74 Q 429.76 -13.26 429.22 -13.89 Q 428.68 -14.51 428.32 -15.44 Q 427.95 -16.37 427.95 -17.51 Z M 452.27 -9.7 L 452.27 -9.7 L 452.27 -23.39 L 454.61 -23.39 L 454.61 -9.66 Q 454.61 -6.03 456.38 -3.95 Q 458.16 -1.88 461.71 -1.88 L 461.71 -1.88 Q 465.3 -1.88 467.07 -3.95 Q 468.85 -6.03 468.85 -9.66 L 468.85 -9.66 L 468.85 -23.39 L 471.21 -23.39 L 471.21 -9.7 Q 471.21 -7.44 470.64 -5.63 Q 470.08 -3.82 468.94 -2.47 Q 467.8 -1.13 465.97 -0.4 Q 464.14 0.33 461.71 0.33 L 461.71 0.33 Q 459.3 0.33 457.48 -0.4 Q 455.65 -1.13 454.52 -2.47 Q 453.39 -3.82 452.83 -5.63 Q 452.27 -7.44 452.27 -9.7 Z M 496.18 0 L 480.36 0 L 480.36 -23.39 L 482.62 -23.39 L 482.62 -2.11 L 496.18 -2.11 L 496.18 0 Z M 508.48 -21.28 L 500.28 -21.28 L 500.28 -23.39 L 518.92 -23.39 L 518.92 -21.28 L 510.72 -21.28 L 510.72 0 L 508.48 0 L 508.48 -21.28 Z M 525.07 0 L 522.61 0 L 532.69 -23.39 L 535.51 -23.39 L 545.57 0 L 543.08 0 L 539.83 -7.72 L 528.32 -7.72 L 525.07 0 Z M 534.08 -21.25 L 529.19 -9.73 L 538.97 -9.73 L 534.08 -21.25 Z M 554.16 0 L 551.89 0 L 551.89 -23.39 L 554.1 -23.39 L 568.34 -3.87 L 568.34 -23.39 L 570.63 -23.39 L 570.63 0 L 568.49 0 L 554.16 -19.44 L 554.16 0 Z M 585.3 -21.28 L 577.1 -21.28 L 577.1 -23.39 L 595.74 -23.39 L 595.74 -21.28 L 587.54 -21.28 L 587.54 0 L 585.3 0 L 585.3 -21.28 Z M 600.86 -17.51 L 600.86 -17.51 Q 600.86 -19.49 601.93 -20.93 Q 603 -22.38 604.76 -23.08 Q 606.51 -23.77 608.68 -23.77 L 608.68 -23.77 Q 611.14 -23.77 613.16 -23.11 Q 615.19 -22.45 616.43 -21.55 L 616.43 -21.55 L 616.43 -19.04 Q 615.02 -20.09 612.95 -20.83 Q 610.87 -21.58 608.65 -21.58 L 608.65 -21.58 Q 606.06 -21.58 604.66 -20.5 Q 603.25 -19.42 603.25 -17.68 L 603.25 -17.68 Q 603.25 -16.9 603.53 -16.27 Q 603.8 -15.64 604.2 -15.21 Q 604.6 -14.78 605.34 -14.39 Q 606.08 -14 606.71 -13.75 Q 607.35 -13.5 608.38 -13.17 L 608.38 -13.17 L 610.91 -12.33 Q 612.28 -11.89 613.19 -11.52 Q 614.09 -11.16 615.01 -10.6 Q 615.92 -10.04 616.43 -9.4 Q 616.95 -8.77 617.27 -7.84 Q 617.6 -6.91 617.6 -5.71 L 617.6 -5.71 Q 617.6 -2.81 615.46 -1.24 Q 613.33 0.33 609.88 0.33 L 609.88 0.33 Q 607.35 0.33 605.04 -0.38 Q 602.72 -1.1 601.08 -2.17 L 601.08 -2.17 L 601.08 -4.55 Q 602.82 -3.37 605.18 -2.56 Q 607.54 -1.76 609.88 -1.76 L 609.88 -1.76 Q 612.58 -1.76 613.94 -2.8 Q 615.29 -3.83 615.29 -5.61 L 615.29 -5.61 Q 615.29 -6.56 614.98 -7.25 Q 614.68 -7.95 613.97 -8.48 Q 613.26 -9.01 612.43 -9.4 Q 611.59 -9.78 610.23 -10.23 L 610.23 -10.23 L 607.05 -11.26 Q 605.98 -11.6 605.21 -11.91 Q 604.45 -12.22 603.56 -12.74 Q 602.67 -13.26 602.13 -13.89 Q 601.59 -14.51 601.23 -15.44 Q 600.86 -16.37 600.86 -17.51 Z" stroke-linecap="round" />
</g>
</svg>