<?xml version="1.0" encoding="UTF-8" standalone="no" ?>
<!DOCTYPE svg PUBLIC "-//W3C//DTD SVG 1.1//EN" "http://www.w3.org/Graphics/SVG/1.1/DTD/svg11.dtd">
<svg xmlns="http://www.w3.org/2000/svg" xmlns:xlink="http://www.w3.org/1999/xlink" version="1.1" width="640" height="480" viewBox="0 0 640 480" xml:space="preserve">
<desc>Created with Fabric.js 3.6.6</desc>
<defs>
</defs>
<g transform="matrix(1 0 0 1 320 174.71)"  >
<g style=""   >
		<g transform="matrix(0.17 0 0 0.2 0 0)"  >
<rect style="stroke: none; stroke-width: 0; stroke-dasharray: none; stroke-linecap: butt; stroke-dashoffset: 0; stroke-linejoin: miter; stroke-miterlimit: 4; fill: rgb(255,255,255); fill-opacity: 0; fill-rule: nonzero; opacity: 1;"  paint-order="stroke"  x="-640" y="-512" rx="0" ry="0" width="1280" height="1024" />
</g>
		<g transform="matrix(2.23 0 0 -2.06 -5.91 -9.27)"  >
<path style="stroke: none; stroke-width: 1; stroke-dasharray: none; stroke-linecap: butt; stroke-dashoffset: 0; stroke-linejoin: miter; stroke-miterlimit: 4; fill: rgb(8,57,115); fill-rule: nonzero; opacity: 1;"  paint-order="stroke"  transform=" translate(36.68, 1.58)" d="M 0 0 L 0 0.004 C -3.802 5.712 -8.75 6.997999999999999 -12.457 6.539999999999999 C -15.569 6.159999999999999 -17.806 4.555999999999999 -17.771 3.315999999999999 C -10.195 -1.4410000000000007 -8.035 -15.082 -4.535 -15.724 C -3.718 -15.872 -2.798 -15.315 -2.248 -14.06 C -2.248 -14.057 -2.245 -14.057 -2.245 -14.053 C -2.241 -14.046000000000001 -2.238 -14.043000000000001 -2.238 -14.036000000000001 C -2.231 -14.022000000000002 -2.224 -14.004000000000001 -2.22 -13.986 C -2.1500000000000004 -13.8 -2.083 -13.606 -2.019 -13.415000000000001 C -2.016 -13.405000000000001 -2.012 -13.391000000000002 -2.0090000000000003 -13.38 C -0.6910000000000003 -9.585 0.024999999999999467 -5.508000000000001 0.024999999999999467 -1.2650000000000006 C 0.025 -0.842 0.018 -0.419 0 0 M -30.221 -27.049 L -33.889 -25.615 L -38.326 -23.878 L -41.425 -28.031 C -42.308 -29.214 -43.123 -30.448 -43.836999999999996 -31.741 C -45.717999999999996 -35.150999999999996 -45.995 -37.08 -45.043 -37.382 C -45.039 -37.382 -45.035 -37.385 -45.032 -37.385 C -45.004 -37.391999999999996 -44.976 -37.399 -44.943999999999996 -37.403 C -42.37799999999999 -37.97 -39.711 -38.266 -36.976 -38.266 C -35.983 -38.266 -34.996 -38.227 -34.022999999999996 -38.146 C -29.096999999999994 -31.764000000000003 -30.220999999999997 -27.049 -30.220999999999997 -27.049 M -43.806 35.105000000000004 L -43.812999999999995 35.105000000000004 C -50.102999999999994 33.932 -55.833 31.165000000000003 -60.568999999999996 27.243000000000002 C -60.653 27.173000000000002 -60.733999999999995 27.106 -60.815 27.035000000000004 C -60.896 26.965000000000003 -60.977999999999994 26.894000000000005 -61.055 26.824000000000005 C -61.295 26.609000000000005 -61.524 26.383000000000006 -61.739 26.144000000000005 C -65.439 22.105000000000004 -64.508 17.454000000000008 -57.003 20.231000000000005 C -48.429 23.402000000000005 -41.734 23.931000000000004 -41.734 23.931000000000004 C -41.734 23.931000000000004 -37.339 24.748000000000005 -31.278000000000002 23.987000000000005 C -28.152 23.600000000000005 -24.579 22.785000000000004 -20.943 21.228000000000005 C -20.943 21.228000000000005 -29.245 35.175000000000004 -43.806 35.105000000000004 M -53.95099999999999 -16.357999999999997 C -53.95099999999999 -16.357999999999997 -64.494 -19.349999999999998 -71.155 -15.455999999999998 L -71.158 -15.455999999999998 C -72.116 -13.150999999999998 -72.846 -10.729999999999997 -73.322 -8.217999999999996 C -73.339 -8.146999999999997 -73.35300000000001 -8.076999999999996 -73.364 -8.005999999999997 L -73.364 -7.995999999999997 C -73.396 -7.748999999999997 -73.39200000000001 -7.480999999999997 -73.346 -7.195999999999997 C -72.349 -0.9439999999999973 -56.974000000000004 4.902000000000004 -56.974000000000004 4.902000000000004 C -56.974000000000004 4.902000000000004 -58.874 -0.8809999999999967 -57.32 -8.076999999999995 C -56.752 -10.719999999999995 -55.716 -13.548999999999996 -53.951 -16.357999999999997" stroke-linecap="round" />
</g>
		<g transform="matrix(2.23 0 0 -2.06 -6.6 -9.92)"  >
<radialGradient id="SVGID_54" gradientUnits="userSpaceOnUse" gradientTransform="matrix(28.36 0 0 -29.38 70.64 73.71)"  cx="0" cy="0" r="1" fx="0" fy="0">
<stop offset="0%" style="stop-color:rgb(156,215,255);stop-opacity: 1"/>
<stop offset="60.903123%" style="stop-color:rgb(36,68,111);stop-opacity: 1"/>
<stop offset="77.0053%" style="stop-color:rgb(36,68,111);stop-opacity: 1"/>
<stop offset="87.483493%" style="stop-color:rgb(36,68,111);stop-opacity: 1"/>
<stop offset="100%" style="stop-color:rgb(17,46,87);stop-opacity: 1"/>
</radialGradient>
<path style="stroke: none; stroke-width: 1; stroke-dasharray: none; stroke-linecap: butt; stroke-dashoffset: 0; stroke-linejoin: miter; stroke-miterlimit: 4; fill: url(#SVGID_54); fill-rule: nonzero; opacity: 1;"  paint-order="stroke"  transform=" translate(-74.38, -71.5)" d="M 48.418 71.501 C 48.418 57.163000000000004 60.041 45.542 74.378 45.542 L 74.378 45.542 C 88.715 45.542 100.337 57.163000000000004 100.337 71.501 L 100.337 71.501 C 100.337 85.83800000000001 88.715 97.46000000000001 74.378 97.46000000000001 L 74.378 97.46000000000001 C 60.041 97.46000000000001 48.418 85.83800000000001 48.418 71.501" stroke-linecap="round" />
</g>
		<g transform="matrix(2.23 0 0 -2.06 -4.89 -9.79)"  >
<path style="stroke: none; stroke-width: 1; stroke-dasharray: none; stroke-linecap: butt; stroke-dashoffset: 0; stroke-linejoin: miter; stroke-miterlimit: 4; fill: rgb(17,46,87); fill-rule: nonzero; opacity: 1;"  paint-order="stroke"  transform=" translate(11.24, 10.47)" d="M 0 0 C -2.29 -3.79 6.61 -8.37 10.48 -23.26 C 10.49 -23.28 10.49 -23.310000000000002 10.5 -23.330000000000002 C 6.2 -30.830000000000002 -1.75 -35.97 -10.920000000000002 -36.35 C -8.810000000000002 -32.300000000000004 -7.710000000000002 -28.48 -9.100000000000001 -27.490000000000002 C -11.590000000000002 -25.720000000000002 -14.930000000000001 -28.680000000000003 -22.28 -34.260000000000005 C -28.720000000000002 -31.490000000000006 -33.81 -26.180000000000007 -36.3 -19.600000000000005 C -31.209999999999997 -18.000000000000004 -25.519999999999996 -15.300000000000004 -20.61 -11.720000000000006 C -10.54 -4.350000000000006 -5.449999999999999 8.229999999999993 -9.29 15.409999999999993 C 2.86 14.14 12.53 4.49 13.81 -7.66 C 8.51 -1.94 1.6 2.65 0 0" stroke-linecap="round" />
</g>
		<g transform="matrix(2.23 0 0 -2.06 -5.84 -9.92)"  >
<radialGradient id="SVGID_55" gradientUnits="userSpaceOnUse" gradientTransform="matrix(48.89 0 0 -48.89 67.83 79.61)"  cx="0" cy="0" r="1" fx="0" fy="0">
<stop offset="0%" style="stop-color:rgb(227,243,246);stop-opacity: 1"/>
<stop offset="47.463809%" style="stop-color:rgb(84,146,217);stop-opacity: 1"/>
<stop offset="55.311%" style="stop-color:rgb(84,146,217);stop-opacity: 1"/>
<stop offset="59.645479%" style="stop-color:rgb(84,146,217);stop-opacity: 1"/>
<stop offset="100%" style="stop-color:rgb(67,109,192);stop-opacity: 1"/>
</radialGradient>
<path style="stroke: none; stroke-width: 1; stroke-dasharray: none; stroke-linecap: butt; stroke-dashoffset: 0; stroke-linejoin: miter; stroke-miterlimit: 4; fill: url(#SVGID_55); fill-rule: nonzero; opacity: 1;"  paint-order="stroke"  transform=" translate(-74.71, -71.5)" d="M 73.865 108.499 C 65.09599999999999 108.37899999999999 57.068999999999996 105.21199999999999 50.785 100.009 L 50.785 100.009 C 51.427 100.531 52.123999999999995 100.982 52.857 101.37 L 52.857 101.37 C 56.216 103.149 65.191 107.036 74.113 103.48 L 74.113 103.48 C 85.39 98.987 80.633 81.276 67.858 71.941 L 67.858 71.941 C 55.852 63.167 39.174 59.759 38.032 64.548 L 38.032 64.548 C 38.936 59.785000000000004 40.751999999999995 55.348 43.294 51.422000000000004 L 43.294 51.422000000000004 C 45.89 47.413000000000004 50.253 44.80200000000001 55.03 44.790000000000006 L 55.03 44.790000000000006 C 57.871 44.784000000000006 61.201 45.638000000000005 64.747 48.303000000000004 L 64.747 48.303000000000004 C 73.114 54.59100000000001 76.728 58.050000000000004 79.371 56.172000000000004 L 79.371 56.172000000000004 C 82.014 54.293000000000006 75.664 42.242000000000004 70.50099999999999 37.67100000000001 L 70.50099999999999 37.67100000000001 C 68.58099999999999 35.973000000000006 67.16799999999999 35.22200000000001 66.41 35.364000000000004 L 66.41 35.364000000000004 C 68.975 34.796 71.644 34.5 74.378 34.5 L 74.378 34.5 C 78.385 34.5 82.244 35.137 85.856 36.315 L 85.856 36.315 C 95.634 39.504999999999995 101.478 49.674 99.133 59.687 L 99.133 59.687 C 99.07799999999999 59.922999999999995 99.01899999999999 60.160999999999994 98.957 60.400999999999996 L 98.957 60.400999999999996 C 95.081 75.29 86.183 79.87 88.474 83.659 L 88.474 83.659 C 90.76400000000001 87.447 103.891 76.43400000000001 107.679 68.50500000000001 L 107.679 68.50500000000001 C 109.666 64.34400000000001 109.881 61.29200000000001 109.346 59.38600000000001 L 109.346 59.38600000000001 C 110.753 63.44100000000001 111.474 67.81800000000001 111.369 72.37400000000001 L 111.369 72.37400000000001 C 110.906 92.394 94.33500000000001 108.50300000000001 74.368 108.50200000000001 L 74.368 108.50200000000001 C 74.201 108.50200000000001 74.032 108.501 73.865 108.49900000000001" stroke-linecap="round" />
</g>
		<g transform="matrix(2.23 0 0 -2.06 -39.23 -35.23)"  >
<linearGradient id="SVGID_56" gradientUnits="userSpaceOnUse" gradientTransform="matrix(44.54 0 0 -44.54 36.99 83.78)"  x1="0" y1="0" x2="1" y2="0">
<stop offset="0%" style="stop-color:rgb(227,243,246);stop-opacity: 1"/>
<stop offset="24.860056999999998%" style="stop-color:rgb(227,243,246);stop-opacity: 1"/>
<stop offset="79.1444%" style="stop-color:rgb(84,146,217);stop-opacity: 1"/>
<stop offset="81.16722800000001%" style="stop-color:rgb(84,146,217);stop-opacity: 1"/>
<stop offset="100%" style="stop-color:rgb(67,109,192);stop-opacity: 1"/>
</linearGradient>
<path style="stroke: none; stroke-width: 1; stroke-dasharray: none; stroke-linecap: butt; stroke-dashoffset: 0; stroke-linejoin: miter; stroke-miterlimit: 4; fill: url(#SVGID_56); fill-rule: nonzero; opacity: 1;"  paint-order="stroke"  transform=" translate(-59.74, -83.78)" d="M 52.857 101.37 C 58.553 103.908 65.131 105.286 71.265 103.598 L 71.265 103.598 C 73.525 102.976 75.737 102.056 77.292 100.225 L 77.292 100.225 C 79.337 97.81599999999999 79.706 94.55699999999999 79.31400000000001 91.523 L 79.31400000000001 91.523 C 78.497 85.194 74.623 79.315 70.031 75.042 L 70.031 75.042 C 65.272 70.616 59.281 67.387 53.228 65.11 L 53.228 65.11 C 50.354 64.029 47.351 63.131 44.293 62.775 L 44.293 62.775 C 42.927 62.617 41.477 62.532 40.132999999999996 62.881 L 40.132999999999996 62.881 C 39.596 63.022 39.04599999999999 63.224000000000004 38.632999999999996 63.607 L 38.632999999999996 63.607 C 38.574999999999996 63.661 38.25299999999999 64.027 38.098 64.291 L 38.098 64.291 C 38.984 61.431999999999995 44.301 61.992999999999995 46.471 62.254 L 46.471 62.254 C 50.122 62.690999999999995 53.711999999999996 63.735 57.126999999999995 65.078 L 57.126999999999995 65.078 C 63.407 67.549 69.479 71.101 74.005 76.173 L 74.005 76.173 C 78.28999999999999 80.977 81.801 87.56700000000001 81.431 94.175 L 81.431 94.175 C 81.258 97.271 80.076 100.356 77.637 102.365 L 77.637 102.365 C 75.412 104.198 72.45 105.017 69.637 105.36999999999999 L 69.637 105.36999999999999 C 68.753 105.481 67.869 105.53399999999999 66.986 105.53399999999999 L 66.986 105.53399999999999 C 62.022000000000006 105.53399999999999 57.11600000000001 103.85799999999999 52.857000000000006 101.36999999999999 M 38.098 64.291 C 38.071999999999996 64.374 38.05 64.459 38.032 64.548 L 38.032 64.548 C 37.991 64.511 38.026999999999994 64.412 38.098 64.291" stroke-linecap="round" />
</g>
		<g transform="matrix(2.23 0 0 -2.06 -24.29 33.54)"  >
<linearGradient id="SVGID_57" gradientUnits="userSpaceOnUse" gradientTransform="matrix(-1.98 -55.27 -55.27 1.98 67.64 87.44)"  x1="0" y1="0" x2="1" y2="0">
<stop offset="0%" style="stop-color:rgb(227,243,246);stop-opacity: 1"/>
<stop offset="47.463809%" style="stop-color:rgb(84,146,217);stop-opacity: 1"/>
<stop offset="55.311%" style="stop-color:rgb(84,146,217);stop-opacity: 1"/>
<stop offset="59.645479%" style="stop-color:rgb(84,146,217);stop-opacity: 1"/>
<stop offset="100%" style="stop-color:rgb(67,109,192);stop-opacity: 1"/>
</linearGradient>
<path style="stroke: none; stroke-width: 1; stroke-dasharray: none; stroke-linecap: butt; stroke-dashoffset: 0; stroke-linejoin: miter; stroke-miterlimit: 4; fill: url(#SVGID_57); fill-rule: nonzero; opacity: 1;"  paint-order="stroke"  transform=" translate(-66.44, -50.41)" d="M 72.908 64.021 C 69.205 61.702 65.941 58.837 62.002 56.878 L 62.002 56.878 C 55.874 53.833 48.896 52.741 42.109 53.385 L 42.109 53.385 C 42.483000000000004 52.72 42.878 52.064 43.294000000000004 51.422999999999995 L 43.294000000000004 51.422999999999995 C 45.89 47.413 50.253 44.800999999999995 55.028000000000006 44.791 L 55.028000000000006 44.791 C 57.87200000000001 44.784 61.202000000000005 45.635999999999996 64.747 48.303999999999995 L 64.747 48.303999999999995 C 73.112 54.590999999999994 76.728 58.05199999999999 79.371 56.17399999999999 L 79.371 56.17399999999999 C 82.014 54.294999999999995 75.664 42.242999999999995 70.50099999999999 37.67299999999999 L 70.50099999999999 37.67299999999999 C 68.58099999999999 35.97399999999999 67.16799999999999 35.222999999999985 66.41 35.36499999999999 L 66.41 35.36499999999999 C 68.975 34.79799999999999 71.64399999999999 34.50099999999999 74.378 34.50099999999999 L 74.378 34.50099999999999 C 76.647 34.50099999999999 78.871 34.70599999999999 81.027 35.09999999999999 L 81.027 35.09999999999999 C 84.463 38.41699999999999 87.31400000000001 42.35599999999999 89.104 46.65199999999999 L 89.104 46.65199999999999 C 91.324 51.97999999999999 91.92 59.87699999999999 87.085 64.02099999999999 L 87.085 64.02099999999999 C 85.198 65.63699999999999 82.90299999999999 66.32199999999999 80.55999999999999 66.32199999999999 L 80.55999999999999 66.32199999999999 C 77.89199999999998 66.32199999999999 75.16299999999998 65.43399999999998 72.90799999999999 64.02099999999999" stroke-linecap="round" />
</g>
		<g transform="matrix(2.23 0 0 -2.06 -8.92 43.13)"  >
<radialGradient id="SVGID_58" gradientUnits="userSpaceOnUse" gradientTransform="matrix(9.33 0 0 -9.33 71.15 43.59)"  cx="0" cy="0" r="1" fx="0" fy="0">
<stop offset="0%" style="stop-color:rgb(227,243,246);stop-opacity: 1"/>
<stop offset="24.860056999999998%" style="stop-color:rgb(227,243,246);stop-opacity: 1"/>
<stop offset="79.1444%" style="stop-color:rgb(84,146,217);stop-opacity: 1"/>
<stop offset="81.16722800000001%" style="stop-color:rgb(84,146,217);stop-opacity: 1"/>
<stop offset="100%" style="stop-color:rgb(67,109,192);stop-opacity: 1"/>
</radialGradient>
<path style="stroke: none; stroke-width: 1; stroke-dasharray: none; stroke-linecap: butt; stroke-dashoffset: 0; stroke-linejoin: miter; stroke-miterlimit: 4; fill: url(#SVGID_58); fill-rule: nonzero; opacity: 1;"  paint-order="stroke"  transform=" translate(-73.35, -45.76)" d="M 78.406 50.433 C 77.391 48.234 76.158 46.125 74.851 44.088 L 74.851 44.088 C 73.525 42.019 72.082 39.98 70.381 38.2 L 70.381 38.2 C 69.429 37.202 67.91 35.385 66.41 35.364 L 66.41 35.364 C 66.371 35.275999999999996 67.679 35.483 67.782 35.519 L 67.782 35.519 C 68.22699999999999 35.677 68.65299999999999 35.9 69.06 36.138999999999996 L 69.06 36.138999999999996 C 69.944 36.653999999999996 70.779 37.275999999999996 71.543 37.958 L 71.543 37.958 C 73.37400000000001 39.591 74.90700000000001 41.559999999999995 76.224 43.623999999999995 L 76.224 43.623999999999995 C 77.60300000000001 45.785 78.789 48.098 79.572 50.544 L 79.572 50.544 C 80.011 51.916 81.049 55.208999999999996 79.37100000000001 56.172 L 79.37100000000001 56.172 C 80.67600000000002 54.824 79.02900000000001 51.782999999999994 78.406 50.433" stroke-linecap="round" />
</g>
		<g transform="matrix(2.23 0 0 -2.06 8.35 -35.56)"  >
<linearGradient id="SVGID_59" gradientUnits="userSpaceOnUse" gradientTransform="matrix(40.32 21.44 21.44 -40.32 65.48 72.37)"  x1="0" y1="0" x2="1" y2="0">
<stop offset="0%" style="stop-color:rgb(227,243,246);stop-opacity: 1"/>
<stop offset="47.463809%" style="stop-color:rgb(84,146,217);stop-opacity: 1"/>
<stop offset="55.311%" style="stop-color:rgb(84,146,217);stop-opacity: 1"/>
<stop offset="59.645479%" style="stop-color:rgb(84,146,217);stop-opacity: 1"/>
<stop offset="100%" style="stop-color:rgb(67,109,192);stop-opacity: 1"/>
</linearGradient>
<path style="stroke: none; stroke-width: 1; stroke-dasharray: none; stroke-linecap: butt; stroke-dashoffset: 0; stroke-linejoin: miter; stroke-miterlimit: 4; fill: url(#SVGID_59); fill-rule: nonzero; opacity: 1;"  paint-order="stroke"  transform=" translate(-81.08, -83.95)" d="M 73.863 108.499 C 65.096 108.38 57.068 105.21199999999999 50.785 100.011 L 50.785 100.011 C 51.427 100.532 52.123999999999995 100.98299999999999 52.857 101.371 L 52.857 101.371 C 56.216 103.14999999999999 65.191 107.03699999999999 74.113 103.481 L 74.113 103.481 C 75.05799999999999 103.104 75.89 102.636 76.615 102.086 L 76.615 102.086 C 84.53 100 101.159 92.917 107.065 69.674 L 107.065 69.674 C 107.291 69.278 107.495 68.887 107.679 68.507 L 107.679 68.507 C 109.666 64.345 109.881 61.294000000000004 109.346 59.38700000000001 L 109.346 59.38700000000001 C 110.75500000000001 63.43900000000001 111.474 67.816 111.36800000000001 72.376 L 111.36800000000001 72.376 C 110.906 92.394 94.33200000000001 108.50300000000001 74.36200000000001 108.50300000000001 L 74.36200000000001 108.50300000000001 C 74.19600000000001 108.50300000000001 74.02900000000001 108.50200000000001 73.86300000000001 108.49900000000001" stroke-linecap="round" />
</g>
		<g transform="matrix(2.23 0 0 -2.06 48.55 -11.01)"  >
<radialGradient id="SVGID_60" gradientUnits="userSpaceOnUse" gradientTransform="matrix(12.16 0 0 -12.16 99.1 72.21)"  cx="0" cy="0" r="1" fx="0" fy="0">
<stop offset="0%" style="stop-color:rgb(227,243,246);stop-opacity: 1"/>
<stop offset="24.860056999999998%" style="stop-color:rgb(227,243,246);stop-opacity: 1"/>
<stop offset="79.1444%" style="stop-color:rgb(84,146,217);stop-opacity: 1"/>
<stop offset="81.16722800000001%" style="stop-color:rgb(84,146,217);stop-opacity: 1"/>
<stop offset="100%" style="stop-color:rgb(67,109,192);stop-opacity: 1"/>
</radialGradient>
<path style="stroke: none; stroke-width: 1; stroke-dasharray: none; stroke-linecap: butt; stroke-dashoffset: 0; stroke-linejoin: miter; stroke-miterlimit: 4; fill: url(#SVGID_60); fill-rule: nonzero; opacity: 1;"  paint-order="stroke"  transform=" translate(-99.15, -72.04)" d="M 88.474 83.659 C 90.092 85.784 94.303 82.283 95.653 81.23 L 95.653 81.23 C 98.129 79.299 100.38900000000001 77.083 102.476 74.741 L 102.476 74.741 C 104.587 72.371 106.511 69.812 107.824 66.907 L 107.824 66.907 C 108.859 64.615 109.792 61.937 109.346 59.385999999999996 L 109.346 59.385999999999996 C 110.34700000000001 62.022 109.60900000000001 65.104 108.644 67.633 L 108.644 67.633 C 107.456 70.746 105.5 73.493 103.277 75.955 L 103.277 75.955 C 101.07600000000001 78.39099999999999 98.587 80.619 95.82000000000001 82.396 L 95.82000000000001 82.396 C 94.80300000000001 83.05 92.16000000000001 84.688 90.268 84.688 L 90.268 84.688 C 89.485 84.688 88.83 84.407 88.474 83.659" stroke-linecap="round" />
</g>
</g>
</g>
</svg>